<svg width="111" height="123" viewBox="0 0 111 123" fill="none" xmlns="http://www.w3.org/2000/svg">
<g clip-path="url(#clip0_23_372)">
<path d="M66.1018 12.1386C66.0564 12.0194 66.0262 11.8949 66.0119 11.7681C65.9804 11.469 66.0495 11.1731 66.1395 10.8902C66.2179 10.6419 66.2756 10.4166 66.131 10.1729C66.0542 10.0438 65.9281 9.95 65.7928 9.88466C65.4584 9.72476 65.0163 9.74859 64.7619 10.0184C64.7088 10.0745 64.6604 10.143 64.5859 10.1637C64.4436 10.2045 64.416 10.01 64.3852 9.91848C64.3775 9.89696 64.2307 9.56332 64.2168 9.58716C64.1192 9.75474 64.1653 9.95077 64.1846 10.1268C64.2099 10.3559 64.193 10.5942 64.1938 10.8256C64.1961 11.3161 64.2038 11.8058 64.2299 12.2954C64.2914 13.4293 64.5205 14.5064 64.7888 15.6026C64.9741 16.3583 65.1563 17.1155 65.3769 17.8627C65.556 18.4685 65.7174 19.3533 66.2917 19.7254C67.0481 20.2151 68.5141 20.1536 69.4405 20.0482C70.373 19.9422 70.7958 18.1341 70.7958 18.1341C69.4105 16.4044 68.066 14.6278 66.6215 12.952C66.4101 12.7083 66.2141 12.4369 66.1018 12.1386Z" fill="#252525"/>
<path d="M98.4035 67.6973C98.2786 67.6974 98.1551 67.6707 98.0414 67.619C97.9276 67.5673 97.8263 67.4918 97.7443 67.3976C97.6622 67.3034 97.6013 67.1926 97.5657 67.0729C97.5301 66.9531 97.5207 66.8271 97.5379 66.7034L100.696 44.1015C100.707 43.9841 100.742 43.8702 100.798 43.7667C100.855 43.6631 100.931 43.5721 101.024 43.499C101.117 43.4259 101.223 43.3723 101.337 43.3415C101.45 43.3106 101.569 43.3031 101.686 43.3194C101.803 43.3357 101.915 43.3755 102.016 43.4364C102.117 43.4972 102.205 43.5779 102.274 43.6736C102.343 43.7692 102.391 43.8778 102.417 43.9928C102.443 44.1079 102.445 44.2269 102.424 44.3429L99.2661 66.9447C99.2372 67.1531 99.1339 67.344 98.9755 67.4823C98.817 67.6206 98.6139 67.6969 98.4035 67.6973Z" fill="#414141"/>
<path d="M84.3756 82.3564C84.2306 82.3562 84.0879 82.3199 83.9604 82.2508C83.8329 82.1816 83.7246 82.0818 83.6454 81.9604C83.5661 81.8389 83.5184 81.6997 83.5064 81.5551C83.4944 81.4106 83.5186 81.2654 83.5769 81.1325C83.6045 81.0687 84.2726 79.5497 85.0667 78.3481C85.734 77.3396 87.2299 76.4678 87.3983 76.3717C87.5994 76.257 87.8379 76.2269 88.0612 76.2881C88.2845 76.3492 88.4744 76.4965 88.5891 76.6976C88.7038 76.8988 88.7339 77.1372 88.6727 77.3605C88.6116 77.5839 88.4643 77.7738 88.2631 77.8884C87.7658 78.1736 86.8525 78.8125 86.5219 79.3122C85.8101 80.3892 85.182 81.8183 85.1751 81.8329C85.1073 81.9885 84.9955 82.1209 84.8535 82.2139C84.7114 82.3069 84.5453 82.3564 84.3756 82.3564Z" fill="black"/>
<path d="M84.377 83.1082C84.081 83.1082 83.7928 82.9576 83.629 82.6854C83.616 82.6639 82.3229 80.516 81.5795 79.3929C81.1798 78.7879 80.2919 78.0599 79.9836 77.8308C79.8036 77.6906 79.6856 77.4854 79.6549 77.2593C79.6242 77.0332 79.6833 76.804 79.8194 76.6209C79.9555 76.4377 80.1579 76.3152 80.3833 76.2794C80.6087 76.2436 80.8391 76.2974 81.0253 76.4294C81.1636 76.5324 82.3967 77.4641 83.0348 78.4289C83.7981 79.5828 85.0696 81.6945 85.1235 81.7837C85.2031 81.9161 85.2462 82.0673 85.2484 82.2218C85.2506 82.3763 85.2118 82.5287 85.1359 82.6633C85.06 82.7979 84.9498 82.91 84.8165 82.9882C84.6832 83.0664 84.5315 83.1078 84.377 83.1082Z" fill="black"/>
<path d="M87.4981 115.044C87.0538 115.044 86.674 114.706 86.631 114.254L82.5213 71.2365C82.5081 71.011 82.5829 70.7891 82.7299 70.6176C82.8769 70.446 83.0847 70.3381 83.3096 70.3165C83.5345 70.2949 83.759 70.3613 83.936 70.5018C84.1129 70.6422 84.2286 70.8458 84.2586 71.0697L88.3683 114.087C88.38 114.208 88.3662 114.331 88.3278 114.446C88.2894 114.562 88.2272 114.668 88.1452 114.758C88.0633 114.849 87.9633 114.921 87.8519 114.97C87.7404 115.019 87.6199 115.044 87.4981 115.044Z" fill="black"/>
<path d="M102.722 66.5757C101.901 65.92 99.3307 65.2312 98.4182 65.0705C97.0583 64.8307 96.2135 64.4425 95.5462 64.2964C94.1909 63.9997 93.981 63.9728 92.5981 63.9028C92.2137 63.8836 91.8293 63.8659 91.445 63.8429C87.9549 63.6353 84.3771 63.7814 81.0431 64.8576C79.8292 64.2441 78.4539 64.9921 77.3608 66.0015C77.0533 66.1176 76.755 66.2544 76.4698 66.4158C75.7234 66.1944 75.0353 66.5373 74.4395 67.1431C73.3927 67.6727 72.5177 68.4887 71.9165 69.4962C71.094 70.8684 70.7834 72.5535 71.1178 74.2355C71.0486 75.0827 71.1708 75.9398 71.6121 76.6694C72.3486 77.8871 73.8753 78.3099 75.0961 77.5642C75.2235 77.4849 75.3242 77.3692 75.3851 77.2321C75.4066 77.2275 75.4289 77.2236 75.4497 77.2175C75.5204 77.2298 75.5927 77.2398 75.6665 77.2459C76.0408 77.2774 76.3852 77.0722 76.5751 76.7854C76.8795 76.9131 77.2116 77.0053 77.5637 77.0537C78.5816 77.1944 79.637 77.1114 80.6602 77.0922C82.1024 77.0653 83.5438 77.0299 84.9844 76.9615C87.5221 76.84 90.0605 76.6186 92.5612 76.1643C93.7744 75.946 94.9765 75.6702 96.1635 75.3379C96.9968 75.1027 98.0423 74.8843 98.6612 74.2201C99.04 74.2407 99.4186 74.1765 99.7694 74.0322C100.12 73.8879 100.434 73.6672 100.689 73.3861L100.714 73.3715C100.832 73.3315 100.944 73.2608 101.045 73.1562C101.651 72.7212 102.13 72.132 102.432 71.4496C102.461 71.3835 102.479 71.3181 102.491 71.2536C102.636 71.1728 102.749 71.0436 102.809 70.8884C103.095 70.0474 103.1 69.1195 102.757 68.2939C102.475 67.6128 103.343 67.0716 102.722 66.5757ZM87.2115 65.644C87.1176 65.6023 87.0228 65.5629 86.927 65.5256L86.9217 65.5179C87.444 65.4838 87.9672 65.463 88.4907 65.4557L88.2285 65.491C87.8949 65.5356 87.5543 65.5871 87.2115 65.644Z" fill="#414141"/>
<path d="M107.342 49.8055C107.172 49.8053 107.006 49.7555 106.864 49.6623C106.722 49.5691 106.61 49.4365 106.542 49.2808C106.474 49.125 106.454 48.9528 106.482 48.7854C106.511 48.6179 106.587 48.4624 106.703 48.3379C107.14 47.8675 107.609 47.2025 107.359 46.7059C106.803 45.5997 102.939 44.292 94.5707 45.2222C94.4568 45.2348 94.3415 45.2249 94.2314 45.193C94.1214 45.161 94.0186 45.1077 93.9292 45.0361C93.8397 44.9644 93.7652 44.8759 93.7099 44.7755C93.6547 44.675 93.6197 44.5647 93.6071 44.4508C93.5945 44.3369 93.6044 44.2216 93.6364 44.1115C93.6683 44.0014 93.7216 43.8987 93.7933 43.8092C93.8649 43.7197 93.9535 43.6452 94.0539 43.59C94.1543 43.5347 94.2646 43.4998 94.3786 43.4872C102.274 42.6085 107.709 43.5187 108.918 45.921C109.305 46.6898 109.456 47.9397 107.981 49.5272C107.809 49.7117 107.576 49.8055 107.342 49.8055Z" fill="#414141"/>
<path d="M79.368 1.03476C79.0136 0.69497 78.6123 0.385935 78.1603 0.18683C77.9345 0.0835678 77.6921 0.0211041 77.4446 0.00233179C77.1916 -0.0122744 76.9426 0.0515315 76.7066 0.1384C76.4921 0.21758 76.2592 0.305217 76.0823 0.454353C75.9524 0.563515 75.8517 0.704196 75.7856 0.860251C75.7164 1.02399 75.7333 1.21234 75.6119 1.35532C75.4781 1.51291 75.2736 1.57057 75.1468 1.74123C74.9892 1.95264 74.9008 2.19479 74.8854 2.45847C74.8301 3.4171 75.5911 4.44645 76.5536 5.04761C76.5796 5.14207 76.6309 5.22765 76.702 5.29514C77.2631 5.83711 78.1134 6.33756 78.8437 5.76331C78.9751 5.65953 79.0851 5.5273 79.1558 5.37432C79.2027 5.27285 79.2834 5.20366 79.351 5.11602C79.4248 5.0207 79.4894 4.91769 79.5763 4.83236C79.7354 4.67553 79.9507 4.58482 80.0767 4.39494C80.222 4.17585 80.3166 3.92985 80.3381 3.66617L80.3389 3.63081C80.3566 3.59083 80.3727 3.54932 80.3873 3.50704C80.6994 2.56994 80.0091 1.64975 79.368 1.03476Z" fill="#252525"/>
<path d="M49.8736 116.917C49.7385 116.917 49.6053 116.886 49.4844 116.825C49.3636 116.765 49.2583 116.678 49.177 116.57C49.0956 116.462 49.0404 116.337 49.0156 116.204C48.9908 116.071 48.9971 115.935 49.0341 115.805L61.3702 72.4028C61.3998 72.2907 61.4515 72.1857 61.5222 72.0938C61.5929 72.0019 61.6812 71.925 61.782 71.8677C61.8828 71.8103 61.9939 71.7736 62.1091 71.7597C62.2242 71.7458 62.3409 71.755 62.4524 71.7867C62.5639 71.8184 62.668 71.8721 62.7585 71.9445C62.8491 72.0169 62.9243 72.1066 62.9798 72.2084C63.0353 72.3102 63.0699 72.4221 63.0817 72.5374C63.0934 72.6528 63.0821 72.7693 63.0483 72.8802L50.7123 116.282C50.6031 116.666 50.2541 116.917 49.8736 116.917Z" fill="black"/>
<path d="M88.0971 23.545C87.818 22.6487 87.1946 21.9891 86.462 21.431C85.0828 20.3809 83.5161 18.7227 81.8656 18.2853C81.2668 18.1269 80.8424 17.8271 80.4942 17.3305C79.521 15.9421 78.8667 14.4047 78.4063 12.7903C78.1795 11.9939 74.5141 16.4242 74.4511 16.601C74.3965 16.7532 67.9867 21.8354 67.5823 22.1882C66.9128 22.7732 66.8636 23.4782 67.1049 24.273C67.3233 24.9895 67.8452 25.5146 68.4026 25.9858C68.634 26.1811 68.9292 26.5347 69.2067 26.65C69.5165 26.7784 70.0539 26.6846 70.3698 26.6846C70.5551 26.6846 71.0432 26.5923 71.1977 26.6884C71.4491 26.8445 71.3692 27.2504 71.5698 27.4764C71.4739 27.6321 71.436 27.8167 71.463 27.9976C71.6851 29.5274 72.2302 31.9505 73.8315 32.2503C73.926 32.5893 74.4511 31.9689 74.8009 32.0804C75.0076 32.1465 75.259 32.1542 75.4704 32.1027C75.9048 31.9966 76.0877 31.919 75.7287 31.51C76.1823 32.0274 76.9095 32.002 77.2608 31.3816C77.287 31.3355 77.3147 31.2901 77.3416 31.244C77.5038 31.1718 77.6606 31.0841 77.8113 30.9857C78.2555 30.8549 78.6664 30.6299 79.0159 30.3261C79.6286 29.7742 80.0752 28.7487 80.0176 27.8539C80.439 27.2888 80.838 26.7075 81.2137 26.1111C81.6565 26.0695 82.0982 26.0167 82.5383 25.9527C83.6676 25.7967 84.6585 25.2686 85.6855 24.6105C85.8708 24.9249 85.9938 25.1686 86.1491 25.39C86.2889 25.5961 86.4908 25.7522 86.7253 25.8358C86.9599 25.9194 87.215 25.9262 87.4536 25.8551C87.9226 25.7252 88.2508 25.3685 88.2616 24.835C88.27 24.4053 88.2247 23.954 88.0971 23.545Z" fill="white"/>
<path d="M68.6295 120.741C68.4965 120.557 68.3781 120.387 68.2535 120.221C67.6877 119.468 66.6961 119.27 65.8005 119.708C66.2663 118.763 68.305 117.694 68.7509 116.829C69.153 116.049 69.5958 114.521 69.6872 114.322C70.2092 113.185 70.0339 112.412 69.0599 111.64C66.879 109.91 64.9879 107.9 63.2882 105.702C63.0868 105.442 62.8808 105.186 62.674 104.93C62.1797 104.319 62.1482 104.042 62.561 103.382C62.704 103.153 62.8908 102.943 63.0899 102.76C63.2682 102.596 63.4912 102.48 63.7202 102.325C63.6503 101.63 63.1045 101.042 63.2206 100.233C64.05 100.465 63.917 101.475 64.6381 101.808C64.6773 101.746 64.7534 101.681 64.758 101.611C64.808 100.883 65.1678 100.372 65.6975 99.8654C66.1333 99.4479 66.364 98.8114 66.6691 98.2633C67.2373 97.2439 67.9537 96.4944 69.2644 96.6658C69.5074 96.6974 69.7703 96.5705 70.0109 96.5198C70.0601 96.6051 70.1223 96.6743 70.1093 96.695C69.6588 97.4061 69.8602 97.0102 70.1877 97.5983C70.6674 98.4601 71.3585 100.019 71.922 100.826C73.6624 103.623 74.0752 104.59 75.4797 106.412C76.3107 107.494 77.0242 108.596 77.8075 109.32C78.3556 109.828 79.1697 110.514 79.5572 111.16C80.1207 112.101 80.7687 112.705 80.9509 113.712C80.9947 114.543 81.1723 115.103 80.7433 115.582C80.1422 116.253 79.2058 116.356 78.5785 117.006C77.7237 117.893 76.7812 119.468 75.9986 120.419C75.3275 121.234 74.5488 121.471 73.5379 121.546C71.5484 121.696 67.7408 121.476 68.6295 120.741Z" fill="white"/>
<path d="M78.5808 109.748C78.6838 109.83 80.8087 111.333 81.4944 113.954C81.6035 114.308 81.6466 114.697 81.6458 115.07C81.6401 116.747 81.6178 118.425 81.5789 120.103C81.5697 120.508 81.5689 121.412 81.2776 121.508C80.8087 121.661 80.0753 121.821 79.4234 121.726C78.9944 121.663 79.0182 121.274 79.0036 120.937C78.9667 120.064 78.9206 119.192 78.876 118.319C78.8714 118.227 78.8491 118.136 78.8138 117.903C78.1857 118.486 77.623 118.996 77.1886 119.627C76.8811 120.074 76.5929 120.538 76.3476 121.022C76.1923 121.328 75.9694 121.517 75.6665 121.589C75.163 121.71 74.6502 121.854 74.139 121.867C71.5191 121.933 68.8985 122.056 66.2763 121.907C64.9025 121.828 64.8464 121.714 65.0232 120.287C65.0894 119.756 65.3438 119.308 65.8489 119.034C66.5961 118.629 67.3295 118.198 68.0744 117.789C68.5502 117.527 69.0322 117.52 69.4697 117.869C69.9009 118.212 70.303 118.297 70.8811 118.133C71.6152 117.925 72.4024 118.158 73.0858 118.47C73.8507 118.819 74.4081 118.678 75.01 118.139C76.0873 117.182 77.1909 116.256 78.3195 115.36C78.8837 114.909 79.1259 114.399 79.1266 113.66C79.1274 112.509 79.0552 111.396 78.5332 110.346C78.4563 110.195 77.5046 109.133 78.5808 109.748Z" fill="#212121"/>
<path opacity="0.15" d="M78.5808 109.748C78.6838 109.83 80.8087 111.333 81.4944 113.954C81.6035 114.308 81.6466 114.697 81.6458 115.07C81.6401 116.747 81.6178 118.425 81.5789 120.103C81.5697 120.508 81.5689 121.412 81.2776 121.508C80.8087 121.661 80.0753 121.821 79.4234 121.726C78.9944 121.663 79.0182 121.274 79.0036 120.937C78.9667 120.064 78.9206 119.192 78.876 118.319C78.8714 118.227 78.8491 118.136 78.8138 117.903C78.1857 118.486 77.623 118.996 77.1886 119.627C76.8811 120.074 76.5929 120.538 76.3476 121.022C76.1923 121.328 75.9694 121.517 75.6665 121.589C75.163 121.71 74.6502 121.854 74.139 121.867C71.5191 121.933 68.8985 122.056 66.2763 121.907C64.9025 121.828 64.8464 121.714 65.0232 120.287C65.0894 119.756 65.3438 119.308 65.8489 119.034C66.5961 118.629 67.3295 118.198 68.0744 117.789C68.5502 117.527 69.0322 117.52 69.4697 117.869C69.9009 118.212 70.303 118.297 70.8811 118.133C71.6152 117.925 72.4024 118.158 73.0858 118.47C73.8507 118.819 74.4081 118.678 75.01 118.139C76.0873 117.182 77.1909 116.256 78.3195 115.36C78.8837 114.909 79.1259 114.399 79.1266 113.66C79.1274 112.509 79.0552 111.396 78.5332 110.346C78.4563 110.195 77.5046 109.133 78.5808 109.748Z" fill="black"/>
<path d="M100.562 54.7108C100.275 52.2808 99.9964 50.9824 99.0739 48.6915C98.1629 46.4283 97.4511 44.2128 96.1988 42.1041C96.0604 41.8712 95.839 41.5299 95.7229 41.2831C95.6322 41.0894 95.5169 40.9072 95.4208 40.7158C95.2271 40.3283 94.9557 39.957 94.8643 39.5458C94.5421 38.1021 94.2685 36.6468 94.0033 35.1916C93.5881 32.9161 92.7341 30.8136 91.9799 28.6081C91.6919 27.7578 91.3481 26.9276 90.9506 26.1227C90.6191 25.4521 90.2407 24.8058 89.8182 24.1885C89.467 23.6757 89.0796 23.1887 88.659 22.731C88.3122 22.3551 87.9417 22.0007 87.5489 21.674C87.2345 21.4126 86.8924 21.0859 86.551 20.8599C86.2951 20.6907 84.4908 19.6237 84.241 19.6099C84.1464 19.6045 85.0589 20.2933 85.1043 20.4793C85.1465 20.6523 85.0843 20.8983 84.9459 21.2389C84.5308 21.943 83.0978 23.0908 82.6112 23.3083C82.2607 23.4652 81.372 24.2654 81.0999 24.5368C79.0281 26.607 74.9215 31.7668 74.1043 31.4516C72.7974 30.9473 71.2684 26.5194 70.5773 24.5222C70.0215 22.9155 71.0654 21.1074 70.7995 21.0867C65.9748 20.7092 65.8188 25.2917 65.7058 26.0773C65.5466 27.1851 65.509 28.3767 65.0508 29.3599C64.1383 31.3171 62.9982 33.1713 61.9051 35.0401C61.2555 36.151 60.5213 37.2126 59.8156 38.2904C59.6511 38.5418 59.4643 38.7824 59.2614 39.003C58.4081 39.9324 57.5202 40.8319 56.6922 41.782C55.8935 42.6984 54.901 43.1596 53.7218 43.3833C50.0825 44.0737 46.4664 43.8553 42.8571 43.1881C42.5527 43.132 42.3336 43.1289 42.1345 43.3849C41.5241 44.1713 40.9322 44.9793 40.8584 46.0101C40.77 47.2386 40.6992 48.4732 40.7177 49.7032C40.7261 50.2636 41.1751 50.4988 41.3673 51.0377C41.674 51.8972 42.492 50.5988 43.4075 50.5334C43.8442 50.5019 43.7512 52.4445 44.1893 52.433C45.6953 52.3938 47.2067 52.4123 48.7065 52.2946C50.3985 52.1616 52.079 51.891 53.7679 51.7096C54.2499 51.6581 54.7665 51.6158 55.2262 51.7319C56.2579 51.9925 57.2611 52.3638 58.2804 52.6752C61.2186 53.5738 64.2259 53.5807 67.2456 53.324C68.9491 53.1795 70.555 52.5991 72.1978 52.1701C74.2434 51.6366 76.1246 50.801 77.9019 49.6871C78.0872 49.571 78.2778 49.4549 78.4792 49.3734C78.8805 49.2112 78.9397 49.0721 78.9482 49.5064C78.9535 49.7655 78.5538 52.1401 76.2952 53.3224C68.5862 57.3584 59.2368 58.6437 57.6824 59.0811C55.574 59.6794 53.4848 60.3434 51.4179 61.0722C50.4677 61.4043 46.2035 62.8188 44.6952 66.4334C43.9457 68.2315 43.3906 70.1049 42.7433 71.9422C41.0821 76.6554 39.5615 81.4078 38.5898 86.3216C38.0886 88.8546 35.5709 100.473 37.6366 101.523C38.7043 102.065 39.7644 102.698 41.0213 102.709C41.6656 102.714 42.1998 102.955 42.6526 103.378C43.2684 103.952 43.9979 104.243 44.8205 104.22C45.5824 104.204 46.3419 104.128 47.0921 103.994C47.5172 103.914 47.8616 103.859 48.2445 104.133C49.5921 105.097 51.1749 105.424 52.7639 105.428C54.1838 105.431 55.5837 105.505 56.9951 105.634C58.3012 105.754 59.6227 105.71 60.938 105.712C62.0519 105.712 63.1112 105.478 64.086 104.904C64.5371 104.643 65.0007 104.405 65.4751 104.19C65.7181 104.078 65.9902 103.96 66.2485 103.961C67.2225 103.964 68.0051 103.566 68.6516 102.879C69.6648 101.801 70.6557 100.702 71.6658 99.6209C71.8857 99.3857 72.1171 99.1389 72.3915 98.9813C73.65 98.2594 74.6209 97.3108 75.0153 95.864C75.0652 95.6786 75.1343 95.4987 75.2213 95.3275C75.6695 94.4542 75.5711 93.5832 75.2413 92.703C74.9529 91.9333 74.6741 91.1602 74.4049 90.3837C74.1174 89.5549 73.8568 88.7162 73.5669 87.8883C73.0319 86.3616 72.4984 84.8333 71.9364 83.3158C71.4514 82.0059 69.0521 79.7319 70.4105 79.4121C70.8994 79.2968 70.4927 78.9962 71.406 78.9078C71.5667 78.8924 71.715 78.4058 71.8788 78.4189C73.1703 78.5242 74.2442 78.1422 75.5157 77.8493C76.6642 77.5848 77.8189 77.345 78.9774 77.1274C80.8362 76.7792 82.725 76.5585 84.5562 76.1034C87.3221 75.417 89.985 74.3053 92.7871 73.7803C97.0521 72.9808 99.0847 66.1674 99.2792 65.5509C99.8865 63.6259 100.059 62.3037 100.343 60.8223C100.662 59.168 100.761 56.3959 100.562 54.7108ZM73.0649 42.0795C72.4423 42.5262 71.7873 42.9321 71.1915 43.4118C69.6402 44.6625 67.7744 45.093 65.8956 45.4789C65.4621 45.5681 64.9924 45.4812 64.362 45.4736C64.5857 45.1507 64.6833 44.9731 64.8148 44.8255C65.4882 44.0691 66.1816 43.3295 66.8473 42.5669C68.5893 40.5736 69.9185 39.0845 71.0993 36.7252C71.1892 36.5192 71.3776 36.2025 71.5106 36.9697C71.7442 38.9169 72.4776 39.9947 73.5954 41.6275C73.3894 41.8051 73.2371 41.9565 73.0649 42.0795Z" fill="#2ACD52"/>
<path d="M76.7642 10.1281C77.3062 10.4948 77.4968 11.0006 77.1593 11.6579C77.0986 11.7755 77.1393 11.9839 77.2016 12.1192C77.4099 12.575 77.3346 12.9894 77.0233 13.3453C76.7073 13.7059 76.3422 14.1079 76.3391 14.5599C76.7265 16.6686 75.2144 18.8503 73.9245 20.1672C72.7621 21.3533 70.8587 22.5241 69.2343 21.8515C68.3633 21.4909 67.6461 20.1895 67.0972 19.287C66.267 17.9217 65.958 17.1345 65.1684 14.6922C64.3766 12.2422 64.3105 10.7969 64.482 8.30466C64.8125 7.18998 65.8403 6.3113 66.6206 5.45953C67.1057 4.92987 67.7891 4.57624 68.4018 4.17112C69.834 3.22479 71.4645 3.03491 73.1219 3.01262C74.2458 2.99724 74.6409 3.0918 74.4795 4.21878C74.4111 4.69848 74.8531 5.58253 75.3151 5.75012C75.8832 5.95537 76.1976 6.27825 76.1077 6.91016C76.0969 6.98857 76.0854 7.11541 76.1277 7.14616C76.7826 7.62048 76.5328 8.39768 76.7457 9.01805C76.8534 9.3294 76.7642 9.71069 76.7642 10.1281Z" fill="white"/>
<path opacity="0.42" d="M66.6136 12.2661C66.004 12.2 65.3683 12.3653 65.1861 12.9511C65.0854 13.2739 65.2722 13.1748 65.479 13.0564C65.8349 12.8527 66.2016 12.745 66.5337 12.7535C66.8519 12.7619 66.9488 12.3022 66.6136 12.2661Z" fill="black"/>
<path d="M79.9875 48.4657L80.4965 47.7438C81.0984 46.8944 81.9625 46.0119 82.5259 45.137C82.765 44.7665 82.8811 44.725 83.2255 44.5766C84.3571 44.09 85.5256 43.6756 86.6164 43.1114C89.1687 41.7899 91.4365 40.0818 93.3099 37.8778C93.5198 37.631 94.0025 36.943 94.2954 36.6309C94.4192 36.9038 94.4407 37.5272 94.5061 37.7194C94.6567 38.5343 94.7382 39.1085 95.0096 39.765C95.2156 40.2639 95.1141 40.6383 94.8336 41.0611C93.7096 42.7531 92.2806 44.14 90.6193 45.2846C88.4983 46.746 86.6649 47.8484 83.7237 48.4065C81.545 48.7816 80.2451 48.5072 79.9875 48.4657Z" fill="#252525"/>
<path d="M80.1067 48.0335L80.508 47.513C80.6294 47.5661 80.7286 47.6007 80.8201 47.6499C81.6396 48.0896 82.2646 47.7867 82.3791 46.865C82.4122 46.6013 82.4006 46.2977 82.2984 46.0601C82.0985 45.595 82.2223 45.2721 82.5967 44.9946C83.46 45.6573 83.5999 47.0041 82.908 47.9881C82.1231 49.1059 81.0476 49.1351 80.1067 48.0335Z" fill="#703030"/>
<path d="M59.901 43.9477C59.0892 44.1499 59.0615 44.1214 58.7072 43.5549C58.0099 42.4417 57.3157 41.3247 56.5716 40.2431C56.108 39.5705 55.327 39.4013 54.5875 39.1922C53.8556 38.9862 53.1314 38.751 52.3996 38.5442C52.0052 38.4327 51.6316 38.0737 51.1742 38.4427C51.1227 38.4842 50.8698 38.2759 50.7683 38.2175C50.3763 38.5649 50.0618 38.9801 49.6452 39.1723C49.2754 39.3429 48.7842 39.3291 48.3598 39.2806C47.9824 39.2361 47.6218 39.0993 47.3097 38.8824C46.7924 38.5081 46.2696 38.3312 45.63 38.4173C44.8305 38.5257 44.337 38.2106 44.0333 37.451C43.6528 36.4993 43.3914 35.5645 43.7428 34.5029C43.8888 34.0616 43.692 33.4851 43.5798 32.9869C43.5129 32.6902 43.4506 32.3988 43.7435 32.2758C43.925 32.1997 44.1994 32.3112 44.4208 32.3781C44.5438 32.4157 44.6537 32.5226 44.7506 32.6172C45.8676 33.7049 46.9961 34.7819 48.0869 35.8959C48.4506 36.2664 48.8119 36.4709 49.3438 36.547C51.2119 36.8153 52.8032 37.3203 54.5859 38.0606C56.035 38.5288 57.1312 39.2284 57.7162 40.4176C58.342 41.4147 59.017 42.381 59.6581 43.3688C59.7688 43.5395 59.8195 43.7478 59.901 43.9477Z" fill="#212121"/>
<path d="M43.9812 36.2157C44.4701 36.3733 44.9021 36.5571 45.3526 36.6516C48.7313 37.3604 52.1076 38.0715 55.3901 39.1692C56.1458 39.4222 56.7362 39.7912 57.2021 40.473C58.0953 41.7807 59.0178 43.0752 60.1648 44.1861C60.38 44.3944 60.5961 44.6243 60.7298 44.8864C60.8459 45.114 60.9043 45.4053 60.8843 45.6598C60.8521 46.0595 60.5884 46.1771 60.2478 45.9511C59.9557 45.7566 59.7074 45.496 59.4414 45.2669C58.8249 45.7843 58.828 45.7781 58.1276 45.4045C57.7079 45.1808 57.2766 44.9779 56.85 44.7657C56.3749 45.7912 56.2019 45.8496 55.1626 45.2992C54.3246 45.5744 53.7765 46.4423 52.8064 46.4616C52.7856 46.5 52.7403 46.5438 52.7395 46.5892C52.7372 46.8167 52.7456 47.0435 52.751 47.2711C52.5227 47.238 52.2567 47.268 52.0738 47.1588C51.6087 46.8821 51.1313 46.593 50.7469 46.2186C49.6476 45.1493 48.5621 44.0623 47.5282 42.9307C46.3458 41.6362 45.2288 40.2809 44.0734 38.9617C43.6931 38.5323 43.2972 38.1169 42.8865 37.7163C42.486 37.3204 42.3668 36.9691 42.6782 36.4725C43.0218 35.9236 43.0741 35.3494 43.0602 34.7405C43.0402 33.8357 43.0141 32.9301 43.0164 32.0253C43.0172 31.7278 42.878 31.2627 43.3654 31.2542C43.7859 31.2466 43.8159 31.6932 43.8374 32.0053C43.9058 32.9901 43.9404 33.9771 43.9781 34.9634C43.9935 35.3447 43.9812 35.7276 43.9812 36.2157Z" fill="#212121"/>
<path opacity="0.4" d="M43.9812 36.2157C44.4701 36.3733 44.9021 36.5571 45.3526 36.6516C48.7313 37.3604 52.1076 38.0715 55.3901 39.1692C56.1458 39.4222 56.7362 39.7912 57.2021 40.473C58.0953 41.7807 59.0178 43.0752 60.1648 44.1861C60.38 44.3944 60.5961 44.6243 60.7298 44.8864C60.8459 45.114 60.9043 45.4053 60.8843 45.6598C60.8521 46.0595 60.5884 46.1771 60.2478 45.9511C59.9557 45.7566 59.7074 45.496 59.4414 45.2669C58.8249 45.7843 58.828 45.7781 58.1276 45.4045C57.7079 45.1808 57.2766 44.9779 56.85 44.7657C56.3749 45.7912 56.2019 45.8496 55.1626 45.2992C54.3246 45.5744 53.7765 46.4423 52.8064 46.4616C52.7856 46.5 52.7403 46.5438 52.7395 46.5892C52.7372 46.8167 52.7456 47.0435 52.751 47.2711C52.5227 47.238 52.2567 47.268 52.0738 47.1588C51.6087 46.8821 51.1313 46.593 50.7469 46.2186C49.6476 45.1493 48.5621 44.0623 47.5282 42.9307C46.3458 41.6362 45.2288 40.2809 44.0734 38.9617C43.6931 38.5323 43.2972 38.1169 42.8865 37.7163C42.486 37.3204 42.3668 36.9691 42.6782 36.4725C43.0218 35.9236 43.0741 35.3494 43.0602 34.7405C43.0402 33.8357 43.0141 32.9301 43.0164 32.0253C43.0172 31.7278 42.878 31.2627 43.3654 31.2542C43.7859 31.2466 43.8159 31.6932 43.8374 32.0053C43.9058 32.9901 43.9404 33.9771 43.9781 34.9634C43.9935 35.3447 43.9812 35.7276 43.9812 36.2157Z" fill="black"/>
<path d="M56.7091 46.0079C56.706 46.0172 56.6991 46.1056 56.6514 46.154C55.9872 46.8297 55.6474 47.6661 55.4107 48.5648C55.1962 49.3797 54.5566 49.6687 53.7748 49.4196C51.6623 48.7462 49.7496 47.6177 47.7017 46.7997C46.9552 46.5015 46.5255 45.9418 46.3141 45.1908C46.2111 44.8241 46.1427 44.4459 46.0212 44.0861C45.7686 43.3445 45.5044 42.6069 45.2286 41.8736C45.1587 41.6845 45.0426 41.5123 44.9542 41.3294C44.8127 41.0349 44.7536 40.7228 45.0311 40.4899C45.2986 40.2646 45.6338 40.3177 45.8805 40.5176C46.311 40.8666 46.7569 41.2225 47.0959 41.6538C47.7186 42.4456 48.4743 43.0798 49.2822 43.651C49.9018 44.0892 50.5968 44.0069 51.2341 43.6717C51.7476 43.4011 51.753 43.0175 51.2687 42.6693C51.0042 42.4794 50.6898 42.3556 50.3915 42.2173C49.858 41.9705 49.466 41.59 49.2753 41.0311C49.1754 40.7382 49.1139 40.4238 49.4375 40.2085C49.7312 40.0133 49.9672 40.157 50.184 40.3615C50.5999 40.7528 51.1172 40.9427 51.6277 41.1772C52.3587 41.5131 53.0091 42.0197 53.7225 42.401C54.285 42.6979 54.7756 43.1143 55.1601 43.621C55.3745 43.9031 55.5775 44.1952 55.7697 44.4935C56.0802 44.9794 56.3785 45.4744 56.7091 46.0079Z" fill="white"/>
<path d="M33.4394 45.868C32.9082 45.9626 31.9864 46.1763 31.5575 46.2147C31.0993 46.2555 30.6304 46.2716 30.1753 46.2178C30.0846 46.207 30.0039 46.1148 29.9247 46.0102C29.8765 45.9464 29.8528 45.8674 29.8579 45.7876C29.8629 45.7077 29.8965 45.6324 29.9523 45.5751C30.0049 45.5135 30.0724 45.4664 30.1484 45.4383C31.1708 45.1308 32.1994 44.8433 33.2326 44.5735C33.4995 44.5114 33.7744 44.4915 34.0475 44.5143C35.2221 44.585 36.396 44.6795 37.5706 44.7557C37.7812 44.7695 37.9942 44.7403 38.2141 44.7303C38.3317 44.2191 37.9596 44.0684 37.6998 43.8516C37.1286 43.3765 36.8349 42.803 37.0187 42.0404C37.1301 41.58 37.5437 41.46 37.8827 41.7914C38.0134 41.9197 38.1295 42.072 38.2194 42.2311C38.6576 43.0098 39.3449 43.4811 40.129 43.8531C41.0438 44.2867 41.9994 44.6657 42.8388 45.2177C43.5122 45.6605 44.0511 46.3154 44.6192 46.9058C44.7169 47.0073 44.7176 47.2725 44.6669 47.4324C44.5862 47.6899 44.4132 47.9167 44.3017 48.1666C43.9812 48.89 43.6391 49.6057 43.3708 50.349C43.2293 50.7403 43.0956 51.0517 42.6413 51.1216C42.1585 51.1962 41.6826 51.3446 41.1983 51.3715C40.3235 51.4207 39.4448 51.3984 38.5684 51.4161C38.141 51.4245 37.7613 51.3277 37.4253 51.0455C36.7888 50.512 36.02 50.3298 35.2182 50.2445C34.7278 50.1922 34.235 50.1584 33.7499 50.0761C33.5485 50.0415 33.251 49.947 33.1934 49.8017C32.9689 49.2359 32.8528 48.5179 32.8152 47.9236C32.9166 46.4823 33.2057 46.5107 33.4394 45.868Z" fill="white"/>
<path d="M47.4327 47.8076C47.2075 47.8 46.9845 47.7838 46.7624 47.7654C46.7424 47.7461 46.7232 47.7261 46.6993 47.7085C46.314 47.422 45.8596 47.243 45.3825 47.1896L44.9427 44.9049C44.8805 44.5812 44.6076 44.4905 44.3646 44.5612L44.3324 44.5013C44.247 44.3498 44.131 44.2745 44.0095 44.253C43.8634 43.9462 43.6766 43.6864 43.4268 43.528C43.387 43.5028 43.346 43.4797 43.3038 43.4588C43.6858 43.5173 44.0741 43.6564 44.4738 43.8155C44.5945 43.864 45.866 43.628 45.866 43.628C45.211 43.4489 43.2999 43.0007 42.6296 43.0975C42.3698 43.1352 41.2689 43.8863 40.5801 43.8886C40.5286 43.8886 40.4917 43.9009 40.471 43.9355C40.4194 43.9562 40.3795 44.0162 40.4118 44.0808C40.8446 44.9471 41.1651 45.7559 41.3435 46.8744C41.4357 48.0244 41.4388 49.0845 41.1767 50.243C41.1674 50.2822 40.9876 50.8211 40.9876 50.8211C40.9676 51.3815 41.4965 51.5484 41.5464 51.5476C42.6957 51.5276 43.5521 51.2332 44.7014 51.2132C44.7014 51.2639 44.6214 51.0633 44.6852 51.0702C45.2206 51.1244 45.7613 51.0906 46.2857 50.9703C46.4041 50.9433 46.3642 50.7742 46.2558 50.7742C46.2588 50.7673 46.2642 50.7604 46.2658 50.7527C46.7977 50.8057 47.0076 50.0285 46.5241 49.7941C46.4588 49.7405 46.3806 49.7052 46.2973 49.6918C46.2196 49.6772 46.1428 49.6665 46.0651 49.6542L45.9498 49.6265C46.2996 49.6288 46.6517 49.6442 47.0053 49.6741C47.5004 49.7164 47.6134 49.1414 47.3551 48.8385L47.5695 48.8001C48.1476 48.6994 47.9808 47.8269 47.4327 47.8076Z" fill="#2ACD52"/>
<path d="M61.9589 45.6565C61.9698 45.583 61.9647 45.5079 61.9442 45.4365C61.9236 45.365 61.888 45.2987 61.8398 45.2422C61.8706 45.1392 61.8645 45.0287 61.8224 44.9299C61.7802 44.831 61.7048 44.75 61.6091 44.701C60.6912 44.1744 60.5959 43.9538 59.5896 43.9261C59.4882 43.8615 58.4796 43.7746 58.3312 43.8023L57.6193 43.9353C57.4387 43.9615 57.2591 43.9951 57.0812 44.036C56.997 44.0541 56.919 44.0942 56.8552 44.1521C56.854 44.151 56.8529 44.1497 56.8521 44.1483C53.7026 41.4046 51.3056 47.8182 52.7455 50.1322C52.7889 50.2075 52.8521 50.2695 52.9283 50.3114C53.0045 50.3533 53.0907 50.3734 53.1775 50.3697C53.3782 50.495 53.6457 50.5027 53.801 50.3059C53.8101 50.4223 53.8555 50.5328 53.9309 50.6219C54.1878 50.937 54.5118 51.1907 54.8793 51.3645C55.2467 51.5384 55.6484 51.6279 56.0549 51.6266L56.0649 51.6297C56.1497 51.6497 56.2383 51.6457 56.3209 51.6182C56.4309 51.6105 56.5416 51.5989 56.6538 51.5805C56.9536 51.5321 57.1435 51.0808 56.9559 50.8363L56.8298 50.6711C57.0605 50.5312 57.1973 50.2067 57.0289 49.9692C57.0036 49.9338 56.9767 49.9023 56.9513 49.8677C57.0027 49.7577 57.0185 49.6343 56.9967 49.5149L56.9897 49.4826C57.963 49.4318 58.9254 49.1397 59.4797 48.4056C59.6657 48.1588 59.7534 47.9228 59.7672 47.7006C59.9171 47.47 59.8695 47.1325 59.6073 46.9834C59.5697 46.9619 59.5312 46.9426 59.4935 46.9234C59.3993 46.8095 59.2919 46.7071 59.1737 46.6182C60.0209 46.5045 60.8734 46.5114 61.7244 46.5906C62.2826 46.6428 62.3564 45.9048 61.9589 45.6565Z" fill="#2ACD52"/>
<path d="M34.7078 57.4023V118.135C34.9184 118.157 35.1083 118.185 35.2989 118.195C36.6066 118.263 37.9111 118.365 39.1903 118.644C39.514 118.715 39.8384 118.816 40.1359 118.954C40.488 119.117 40.4864 119.355 40.1282 119.512C39.7805 119.66 39.419 119.773 39.0489 119.85C37.782 120.119 36.4913 120.215 35.199 120.277C32.9627 120.386 30.7241 120.384 28.4932 120.187C27.5115 120.1 26.5368 119.924 25.5635 119.764C25.2991 119.72 25.037 119.612 24.7994 119.489C24.5019 119.335 24.5065 119.134 24.8063 118.971C25.0024 118.864 25.2191 118.769 25.439 118.732C26.3811 118.57 27.3261 118.425 28.2734 118.296C28.7546 118.232 29.2443 118.228 29.7294 118.192C29.8324 118.185 29.9331 118.161 30.0799 118.137V57.4162L34.7078 57.4023Z" fill="#414141"/>
<path opacity="0.42" d="M71.3491 13.6083C71.3283 13.3677 71.1861 13.1524 70.9547 13.0694C70.8141 13.0187 70.5704 13.1463 70.505 13.3777C70.4443 13.5929 70.4658 13.8758 70.5565 14.0865C70.6603 14.3255 70.9563 14.4393 71.17 14.2602C71.346 14.1126 71.3668 13.8205 71.3491 13.6083Z" fill="black"/>
<path opacity="0.42" d="M66.7059 13.9959C66.5606 13.8621 66.3216 13.9159 66.2654 14.1119C66.2601 14.1312 66.1524 14.4287 66.3423 14.853C66.4369 15.0636 66.7006 15.1082 66.8243 14.916C66.913 14.7723 66.9496 14.6025 66.928 14.435C66.9065 14.2675 66.8281 14.1125 66.7059 13.9959Z" fill="black"/>
<path opacity="0.42" d="M71.7627 11.6082C71.0578 11.3491 70.5097 11.376 69.8363 11.6966C69.5326 11.8411 69.5849 12.2332 70.0338 12.1179C70.5359 11.9901 71.0552 11.9433 71.5721 11.9795C71.9672 12.0125 72.0764 11.7235 71.7627 11.6082Z" fill="black"/>
<path opacity="0.42" d="M70.4698 18.5837C69.9978 18.8505 69.02 18.9219 68.5779 18.8389C68.4603 18.8166 68.3642 19.0196 68.4442 19.1287C68.4449 19.1295 68.5149 19.274 68.7255 19.4032C69.0669 19.613 69.4689 19.6922 69.8541 19.5677C70.0386 19.5085 70.2553 19.4201 70.3983 19.2879C70.5311 19.16 70.6535 19.0217 70.7643 18.8743C70.9564 18.6314 70.8173 18.3877 70.4698 18.5837Z" fill="black"/>
<path opacity="0.42" d="M70.2476 118.172C70.2115 118.171 70.176 118.161 70.1452 118.142C70.1143 118.124 70.0891 118.097 70.0723 118.065C70.0555 118.033 70.0477 117.997 70.0497 117.96C70.0518 117.924 70.0636 117.889 70.0839 117.86C71.4984 115.809 72.6084 114.139 72.9621 112.86L72.9767 112.808C73.0835 112.423 73.2165 111.943 73.0712 111.773C70.2215 108.425 65.8596 103.806 65.8158 103.76C65.7796 103.722 65.7601 103.671 65.7615 103.618C65.763 103.565 65.7853 103.516 65.8235 103.479C65.8617 103.443 65.9128 103.424 65.9654 103.425C66.018 103.427 66.0679 103.449 66.1041 103.487C66.1479 103.533 70.5167 108.159 73.3734 111.515C73.6555 111.846 73.5048 112.39 73.3587 112.915L73.3449 112.966C72.9744 114.305 71.8466 116.004 70.4106 118.086C70.3926 118.112 70.3683 118.134 70.3399 118.149C70.3115 118.164 70.2798 118.172 70.2476 118.172Z" fill="black"/>
<path d="M56.0165 52.0317C55.9886 52.0318 55.9611 52.0251 55.9364 52.0122C55.9116 51.9994 55.8903 51.9807 55.8743 51.9579C52.6902 47.4715 54.6274 45.728 55.6675 44.7909L55.7367 44.7286C57.4748 43.1558 60.3015 43.3218 63.9223 45.2006C63.9629 45.2222 63.9932 45.2589 64.0069 45.3028C64.0205 45.3467 64.0163 45.3942 63.9952 45.435C63.974 45.4757 63.9376 45.5065 63.8939 45.5207C63.8502 45.5348 63.8027 45.5311 63.7616 45.5104C60.3323 43.7308 57.5686 43.5417 55.9812 44.9785L55.902 45.0499C54.875 45.9747 53.1553 47.523 56.1595 51.7549C56.1728 51.7736 56.1823 51.7948 56.1874 51.8172C56.1926 51.8396 56.1932 51.8628 56.1894 51.8854C56.1855 51.908 56.1772 51.9297 56.165 51.9491C56.1527 51.9686 56.1368 51.9854 56.118 51.9986C56.0886 52.0203 56.053 52.0319 56.0165 52.0317Z" fill="#414141"/>
<path d="M76.1701 38.3312C76.1389 38.3312 76.1082 38.3228 76.0814 38.3069C76.0545 38.291 76.0324 38.2683 76.0173 38.241C76.0022 38.2136 75.9948 38.1828 75.9957 38.1516C75.9966 38.1204 76.0058 38.09 76.0225 38.0636C77.4047 35.8735 78.0996 34.0585 78.607 32.7339C78.7653 32.3203 78.9022 31.9629 79.0398 31.6438C82.2416 24.2132 85.026 24.2654 85.1413 24.2731C85.1875 24.2753 85.2309 24.2957 85.2621 24.3298C85.2932 24.364 85.3095 24.4091 85.3074 24.4553C85.3052 24.5015 85.2848 24.5449 85.2507 24.5761C85.2165 24.6072 85.1714 24.6235 85.1252 24.6214H85.1236C85.0452 24.6214 82.413 24.6959 79.3604 31.7815C79.2258 32.0943 79.0898 32.448 78.9329 32.8585C78.4202 34.1968 77.7183 36.0303 76.3177 38.2497C76.3021 38.2747 76.2803 38.2954 76.2545 38.3096C76.2286 38.3239 76.1996 38.3313 76.1701 38.3312Z" fill="#414141"/>
<path d="M78.9498 49.4111C78.9146 49.4115 78.88 49.4013 78.8508 49.3816C78.8216 49.362 78.799 49.3339 78.786 49.3011C78.7731 49.2684 78.7705 49.2324 78.7784 49.1981C78.7864 49.1638 78.8046 49.1327 78.8306 49.109C81.0438 47.0372 82.3023 45.2537 83.3324 43.6348C92.0277 29.9749 89.0419 25.7976 89.0111 25.7568C88.983 25.7202 88.9705 25.674 88.9763 25.6283C88.982 25.5825 89.0056 25.5409 89.0419 25.5124C89.0781 25.484 89.1241 25.4711 89.1697 25.4766C89.2154 25.4821 89.2571 25.5054 89.2856 25.5416C89.4209 25.713 92.4904 29.8973 83.6268 43.8223C82.6344 45.3821 81.316 47.2594 79.0689 49.3642C79.0367 49.3945 78.994 49.4113 78.9498 49.4111Z" fill="#414141"/>
<path d="M44.9296 88.2021C44.9048 88.2021 44.8802 88.1968 44.8575 88.1865C44.8349 88.1762 44.8147 88.1612 44.7983 88.1425C44.782 88.1238 44.7698 88.1018 44.7626 88.078C44.7554 88.0542 44.7534 88.0291 44.7567 88.0045C44.842 87.3603 46.8784 72.1791 49.7312 68.5376C52.7209 64.7223 59.2852 61.6596 68.2157 59.9145L69.6725 59.6301C77.8504 58.0357 84.9128 56.6581 86.3658 55.3951C86.3829 55.3791 86.4031 55.3668 86.4252 55.3588C86.4472 55.3508 86.4706 55.3474 86.494 55.3486C86.5174 55.3499 86.5403 55.3559 86.5614 55.3662C86.5824 55.3765 86.6012 55.3909 86.6165 55.4087C86.6318 55.4264 86.6435 55.447 86.6507 55.4693C86.6579 55.4916 86.6605 55.5151 86.6584 55.5385C86.6563 55.5618 86.6495 55.5845 86.6385 55.6052C86.6274 55.6258 86.6123 55.6441 86.5941 55.6588C85.0704 56.9833 78.3047 58.3025 69.7386 59.973L68.2818 60.2574C59.5612 61.9617 52.9 65.0582 50.0049 68.7536C47.2105 72.3206 45.1226 87.8938 45.1018 88.0506C45.0964 88.0925 45.0759 88.1309 45.0443 88.1588C45.0126 88.1867 44.9718 88.202 44.9296 88.2021Z" fill="#414141"/>
<path d="M50.0403 103.877C50.0074 103.877 49.975 103.868 49.9471 103.85C49.9192 103.833 49.8969 103.807 49.8828 103.778C48.2853 100.445 47.0861 83.1991 47.0353 82.4665C47.0338 82.4436 47.0367 82.4207 47.044 82.3989C47.0513 82.3772 47.0628 82.3571 47.0779 82.3399C47.093 82.3226 47.1113 82.3085 47.1318 82.2983C47.1523 82.2881 47.1747 82.282 47.1975 82.2804C47.2204 82.2789 47.2433 82.2818 47.2651 82.2891C47.2868 82.2964 47.3069 82.3079 47.3241 82.323C47.3414 82.3381 47.3556 82.3564 47.3658 82.3769C47.3759 82.3974 47.382 82.4198 47.3836 82.4426C47.3959 82.621 48.6289 100.354 50.1972 103.626C50.2101 103.653 50.216 103.682 50.2144 103.712C50.2128 103.741 50.2037 103.77 50.1881 103.795C50.1724 103.82 50.1506 103.841 50.1248 103.855C50.0989 103.869 50.0699 103.877 50.0403 103.877Z" fill="#414141"/>
<path d="M51.6554 95.8764C51.618 95.8764 51.5816 95.8643 51.5516 95.842C51.5215 95.8198 51.4995 95.7884 51.4886 95.7526C50.6138 92.8821 49.1547 89.0661 49.1401 89.0276C49.1313 89.0061 49.1269 88.9831 49.1272 88.9598C49.1275 88.9366 49.1324 88.9137 49.1416 88.8924C49.1509 88.8711 49.1643 88.8518 49.1811 88.8357C49.1979 88.8197 49.2177 88.8071 49.2394 88.7989C49.2611 88.7906 49.2843 88.7867 49.3075 88.7874C49.3307 88.7882 49.3535 88.7936 49.3746 88.8033C49.3958 88.813 49.4147 88.8269 49.4304 88.844C49.4461 88.8611 49.4582 88.8812 49.466 88.9031C49.4806 88.9415 50.9443 92.7691 51.823 95.6512C51.8311 95.6773 51.8329 95.705 51.8283 95.732C51.8237 95.7589 51.8128 95.7844 51.7965 95.8064C51.7801 95.8283 51.7588 95.8461 51.7343 95.8583C51.7098 95.8705 51.6828 95.8767 51.6554 95.8764Z" fill="#414141"/>
<path d="M60.8889 79.695C60.8513 79.6946 60.8149 79.6821 60.7849 79.6594C60.7549 79.6366 60.7331 79.6049 60.7226 79.5688C60.7121 79.5326 60.7134 79.4941 60.7265 79.4588C60.7396 79.4236 60.7636 79.3935 60.7952 79.3729C66.0472 76.015 68.5941 77.1028 69.5527 77.5126C69.615 77.5395 69.6826 77.5679 69.7357 77.5879C69.7135 77.4586 69.6858 77.3304 69.6526 77.2035C69.1114 75.0372 66.7245 72.0775 66.6999 72.0483C66.6854 72.0305 66.6745 72.0101 66.668 71.9881C66.6614 71.9662 66.6592 71.9431 66.6615 71.9203C66.6662 71.8743 66.689 71.832 66.7249 71.8027C66.7608 71.7734 66.8068 71.7596 66.8528 71.7643C66.8989 71.769 66.9412 71.7918 66.9705 71.8277C67.0704 71.9515 69.4305 74.8781 69.9909 77.1182C70.1039 77.5718 70.1392 77.7832 69.997 77.9054C69.8587 78.023 69.6918 77.9515 69.4151 77.8339C68.5026 77.4441 66.0787 76.4086 60.982 79.6674C60.9544 79.6857 60.922 79.6954 60.8889 79.695Z" fill="#414141"/>
<path d="M43.2915 50.864C43.2628 50.8641 43.2345 50.8572 43.2091 50.8438C43.1837 50.8304 43.1621 50.8109 43.1461 50.787C43.1301 50.7632 43.1203 50.7358 43.1175 50.7072C43.1147 50.6786 43.119 50.6498 43.13 50.6233C44.8705 46.3606 42.7434 44.2074 42.7218 44.1866C42.6893 44.1541 42.6709 44.1101 42.6707 44.064C42.6704 44.018 42.6884 43.9738 42.7206 43.9409C42.7528 43.9081 42.7967 43.8893 42.8428 43.8887C42.8888 43.8881 42.9332 43.9056 42.9663 43.9376C43.0616 44.0313 45.2818 46.2784 43.4537 50.7563C43.4403 50.7883 43.4178 50.8156 43.3889 50.8347C43.36 50.8539 43.3261 50.8641 43.2915 50.864Z" fill="#414141"/>
<path d="M92.964 51.7174H92.9571C92.9109 51.7154 92.8673 51.6952 92.8359 51.6612C92.8045 51.6272 92.7879 51.5822 92.7895 51.536C92.9133 48.4179 91.0821 46.749 91.0637 46.7328C91.0338 46.701 91.0168 46.6591 91.0161 46.6154C91.0155 46.5717 91.0312 46.5293 91.0602 46.4966C91.0891 46.4639 91.1293 46.4431 91.1728 46.4385C91.2162 46.4338 91.2599 46.4456 91.2951 46.4715C91.3758 46.543 93.2677 48.2688 93.1378 51.5498C93.1362 51.5948 93.1172 51.6374 93.0848 51.6687C93.0524 51.7 93.0091 51.7174 92.964 51.7174Z" fill="#414141"/>
<path d="M84.5386 52.1833C84.5056 52.183 84.4734 52.1735 84.4456 52.1558C84.4178 52.1381 84.3955 52.1129 84.3814 52.0831C84.3673 52.0533 84.3618 52.0202 84.3657 51.9875C84.3696 51.9547 84.3826 51.9237 84.4033 51.8981C85.3657 50.7134 85.3388 48.9607 85.3388 48.943C85.338 48.8968 85.3555 48.8521 85.3874 48.8187C85.4194 48.7853 85.4633 48.7659 85.5095 48.7647C85.5557 48.764 85.6002 48.7816 85.6336 48.8135C85.6669 48.8454 85.6864 48.8892 85.6878 48.9353C85.6894 49.0122 85.7194 50.8326 84.6746 52.1187C84.658 52.1387 84.6372 52.1549 84.6137 52.1661C84.5902 52.1772 84.5646 52.1831 84.5386 52.1833Z" fill="#414141"/>
<path d="M45.743 48.0734C44.8727 48.0734 43.961 47.6437 43.9218 47.6245C43.8928 47.6107 43.8682 47.5892 43.8507 47.5624C43.8332 47.5355 43.8235 47.5043 43.8226 47.4723L43.7973 46.6067C43.7963 46.583 43.8005 46.5594 43.8096 46.5375L44.596 44.5457C44.6044 44.5243 44.617 44.5048 44.6329 44.4883C44.6489 44.4718 44.6679 44.4586 44.689 44.4495C44.7101 44.4404 44.7327 44.4355 44.7557 44.4351C44.7786 44.4347 44.8014 44.4388 44.8228 44.4473C44.8441 44.4557 44.8636 44.4682 44.8801 44.4842C44.8966 44.5002 44.9098 44.5192 44.9189 44.5403C44.9281 44.5613 44.933 44.584 44.9334 44.6069C44.9337 44.6299 44.9296 44.6527 44.9212 44.674L44.1478 46.6328L44.1686 47.3524C44.4261 47.4623 45.1556 47.7429 45.8091 47.7237C45.9128 47.7175 45.9859 47.7967 45.9889 47.8928C45.9902 47.939 45.9731 47.9839 45.9414 48.0176C45.9098 48.0513 45.866 48.0711 45.8198 48.0727L45.743 48.0734Z" fill="#414141"/>
<path d="M57.5225 45.8733C57.5015 45.8732 57.4807 45.8693 57.461 45.8618C56.9552 45.6655 56.4608 45.4406 55.9804 45.1884C55.9567 45.1757 55.9362 45.1578 55.9205 45.1359C55.9049 45.1141 55.8944 45.0889 55.89 45.0624C55.8857 45.0358 55.8874 45.0086 55.8952 44.9829C55.903 44.9572 55.9167 44.9336 55.9351 44.9139C55.9658 44.8809 56.7215 44.1183 58.764 44.8909C58.8038 44.9098 58.835 44.9429 58.8514 44.9838C58.8678 45.0246 58.8682 45.0701 58.8527 45.1113C58.8371 45.1524 58.8066 45.1862 58.7672 45.2059C58.7279 45.2256 58.6826 45.2298 58.6403 45.2176C57.4318 44.7602 56.743 44.8863 56.4186 45.0208C56.6984 45.1592 57.1504 45.3737 57.5817 45.5351C57.625 45.5513 57.6601 45.5841 57.6793 45.6262C57.6985 45.6683 57.7001 45.7162 57.684 45.7596C57.6724 45.7931 57.6505 45.822 57.6216 45.8425C57.5926 45.8629 57.5579 45.8737 57.5225 45.8733Z" fill="#414141"/>
<path d="M56.0634 48.9153C56.0373 48.9153 56.0115 48.9095 55.988 48.8981C55.9644 48.8868 55.9437 48.8704 55.9273 48.85L54.4867 47.0496C54.4592 47.0134 54.4469 46.9679 54.4525 46.9227C54.458 46.8776 54.481 46.8364 54.5165 46.8079C54.552 46.7795 54.5971 46.766 54.6424 46.7703C54.6877 46.7747 54.7295 46.7966 54.7589 46.8313L56.1995 48.6317C56.2197 48.6574 56.2324 48.6883 56.236 48.7209C56.2396 48.7534 56.234 48.7863 56.2198 48.8159C56.2056 48.8454 56.1835 48.8704 56.1558 48.888C56.1282 48.9055 56.0962 48.915 56.0634 48.9153Z" fill="#414141"/>
<path d="M54.7596 47.051L54.5866 47.0326L54.4121 47.0272C54.4129 46.998 54.4267 46.8458 54.5958 46.7074C54.8995 46.4598 55.5114 46.4129 56.4147 46.5675C56.4373 46.5714 56.4589 46.5797 56.4783 46.5919C56.4977 46.6041 56.5145 46.6201 56.5278 46.6388C56.541 46.6576 56.5505 46.6787 56.5555 46.7011C56.5606 46.7235 56.5612 46.7466 56.5573 46.7693C56.5534 46.7919 56.5451 46.8135 56.5329 46.8329C56.5206 46.8523 56.5047 46.8691 56.4859 46.8824C56.4672 46.8956 56.446 46.905 56.4236 46.9101C56.4013 46.9151 56.3781 46.9158 56.3555 46.9119C54.8849 46.6597 54.7604 47.0472 54.7596 47.051Z" fill="#414141"/>
<path opacity="0.42" d="M68.5025 16.9308C68.3788 16.9308 68.2658 16.9139 68.1681 16.88C68.0005 16.8209 67.9291 16.7225 67.8991 16.6502C67.8207 16.4611 67.9052 15.9829 68.1236 14.9812C68.1774 14.7352 68.2235 14.5231 68.2358 14.4277C68.2423 14.3822 68.2665 14.341 68.3032 14.3133C68.3398 14.2855 68.386 14.2733 68.4316 14.2794C68.4772 14.2854 68.5186 14.3093 68.5467 14.3457C68.5748 14.3822 68.5874 14.4282 68.5817 14.4739C68.5484 14.669 68.5091 14.8631 68.4641 15.0558C68.3719 15.4802 68.1797 16.3627 68.2227 16.521C68.2719 16.5972 68.7555 16.6617 69.3551 16.3342C69.3955 16.3137 69.4424 16.3096 69.4857 16.323C69.5291 16.3364 69.5655 16.3661 69.5873 16.4059C69.6091 16.4457 69.6145 16.4924 69.6025 16.5362C69.5904 16.5799 69.5618 16.6172 69.5227 16.6402C69.1783 16.8285 68.8093 16.9308 68.5025 16.9308Z" fill="black"/>
<path opacity="0.42" d="M71.4913 21.7432C71.448 21.7437 71.406 21.7281 71.3736 21.6994C71.3412 21.6707 71.3206 21.631 71.3158 21.588C71.311 21.545 71.3224 21.5017 71.3477 21.4666C71.373 21.4315 71.4105 21.407 71.4528 21.398C73.9167 20.836 74.474 19.3147 75.4857 16.5518L75.4964 16.5226C75.5043 16.5011 75.5163 16.4814 75.5318 16.4645C75.5473 16.4477 75.566 16.434 75.5868 16.4244C75.6076 16.4148 75.63 16.4093 75.6529 16.4084C75.6758 16.4074 75.6986 16.411 75.7201 16.4188C75.7416 16.4267 75.7614 16.4387 75.7782 16.4542C75.7951 16.4698 75.8087 16.4884 75.8184 16.5092C75.828 16.53 75.8335 16.5524 75.8344 16.5753C75.8354 16.5982 75.8318 16.621 75.8239 16.6425L75.8132 16.6718C74.7946 19.4546 74.1788 21.1343 71.5305 21.7386C71.5176 21.7416 71.5045 21.7432 71.4913 21.7432Z" fill="black"/>
<path opacity="0.42" d="M74.9478 23.0563C74.9244 23.0563 74.9013 23.0516 74.8797 23.0425C74.8582 23.0334 74.8387 23.0201 74.8225 23.0033C74.3875 22.5508 73.958 22.0931 73.5341 21.6303C73.3756 21.4555 73.2144 21.2833 73.0505 21.1137C73.0206 21.0819 73.0036 21.04 73.0029 20.9963C73.0023 20.9526 73.018 20.9102 73.047 20.8775C73.0759 20.8447 73.1161 20.824 73.1596 20.8194C73.203 20.8147 73.2467 20.8265 73.2819 20.8523C73.3311 20.8962 73.481 21.0584 73.7901 21.3928C74.1521 21.7848 74.6472 22.3214 75.0723 22.7588C75.0963 22.7835 75.1125 22.8146 75.1189 22.8484C75.1253 22.8821 75.1217 22.917 75.1084 22.9487C75.0951 22.9804 75.0728 23.0075 75.0443 23.0267C75.0157 23.0458 74.9821 23.0561 74.9478 23.0563Z" fill="black"/>
<path d="M25.1245 118.897H39.8199C40.451 118.897 40.9676 119.414 40.9676 120.045C40.9676 120.676 40.451 121.193 39.8199 121.193H25.1245C24.8205 121.192 24.5291 121.07 24.3141 120.855C24.0991 120.64 23.9778 120.349 23.9768 120.045C23.9778 119.741 24.0991 119.45 24.3141 119.235C24.5291 119.019 24.8205 118.898 25.1245 118.897Z" fill="#414141"/>
<path d="M79.8693 61.8771C79.7383 61.8771 79.6089 61.8476 79.4909 61.7908C79.3728 61.734 79.2691 61.6514 79.1873 61.5491C79.1055 61.4468 79.0477 61.3274 79.0184 61.1997C78.989 61.072 78.9887 60.9394 79.0175 60.8116C79.4418 58.9305 82.0233 56.2876 84.3195 56C84.5071 55.9762 84.7808 55.9508 85.1582 55.9155C95.6977 54.93 102.946 52.38 106.702 48.338C106.862 48.1779 107.078 48.0863 107.304 48.0822C107.53 48.0781 107.749 48.162 107.915 48.3161C108.081 48.4702 108.18 48.6826 108.192 48.9085C108.204 49.1344 108.128 49.3562 107.98 49.5272C105.362 52.3454 101.222 54.5071 95.6778 55.9508C91.2782 57.097 87.1032 57.4876 85.3204 57.6544C84.9722 57.6867 84.697 57.7128 84.5363 57.7328C82.9558 57.9311 80.9732 60.0682 80.7187 61.1968C80.6754 61.3898 80.5677 61.5623 80.4133 61.6859C80.259 61.8096 80.0671 61.877 79.8693 61.8771Z" fill="#414141"/>
<path d="M87.0277 77.5986C86.907 77.5987 86.7877 77.5738 86.6771 77.5254C86.5666 77.477 86.4673 77.4062 86.3855 77.3175C86.3038 77.2288 86.2413 77.124 86.202 77.0099C86.1627 76.8958 86.1476 76.7748 86.1575 76.6546L87.7649 56.9071C87.7742 56.7929 87.8059 56.6817 87.8582 56.5797C87.9104 56.4778 87.9823 56.3872 88.0696 56.313C88.1569 56.2388 88.2579 56.1826 88.367 56.1475C88.476 56.1123 88.5909 56.0991 88.7051 56.1083C88.8193 56.1176 88.9305 56.1493 89.0324 56.2016C89.1344 56.2539 89.225 56.3257 89.2992 56.413C89.3733 56.5003 89.4296 56.6014 89.4647 56.7104C89.4998 56.8194 89.5131 56.9343 89.5038 57.0485L87.8964 76.796C87.8786 77.0144 87.7795 77.2181 87.6186 77.3668C87.4577 77.5154 87.2468 77.5982 87.0277 77.5986Z" fill="#414141"/>
<path d="M95.1203 76.4863C94.9981 76.4862 94.8772 76.4604 94.7656 76.4107C94.6539 76.361 94.5539 76.2884 94.472 76.1976C94.3902 76.1068 94.3283 75.9999 94.2903 75.8837C94.2523 75.7675 94.2392 75.6446 94.2516 75.5231L96.3926 54.8784C96.4043 54.7644 96.4384 54.6538 96.4929 54.553C96.5474 54.4521 96.6212 54.363 96.7102 54.2908C96.7991 54.2185 96.9015 54.1645 97.0114 54.1318C97.1212 54.0992 97.2365 54.0885 97.3504 54.1004C97.5806 54.1247 97.7918 54.2392 97.9376 54.4189C98.0835 54.5986 98.1521 54.8288 98.1284 55.0591L95.9875 75.7037C95.9649 75.9181 95.8639 76.1167 95.7038 76.2611C95.5437 76.4056 95.3359 76.4858 95.1203 76.4863Z" fill="#414141"/>
<path d="M109.592 119.771C109.381 119.77 109.177 119.693 109.019 119.555C108.86 119.416 108.757 119.224 108.729 119.015L102.26 71.2711C102.243 71.1565 102.248 71.0395 102.276 70.927C102.304 70.8144 102.354 70.7086 102.423 70.6156C102.493 70.5226 102.58 70.4445 102.68 70.3856C102.78 70.3267 102.89 70.2884 103.005 70.2728C103.12 70.2572 103.237 70.2647 103.349 70.2948C103.461 70.3249 103.566 70.3771 103.658 70.4482C103.749 70.5193 103.826 70.608 103.883 70.709C103.94 70.8101 103.976 70.9215 103.989 71.0367L110.457 118.78C110.474 118.904 110.464 119.029 110.429 119.149C110.393 119.268 110.332 119.378 110.25 119.472C110.168 119.566 110.067 119.641 109.953 119.693C109.84 119.744 109.716 119.771 109.592 119.771Z" fill="#414141"/>
<path d="M62.6039 58.6453H3.7265C2.88072 58.6429 2.07028 58.3058 1.47222 57.7078C0.874164 57.1097 0.537102 56.2993 0.534668 55.4535C0.537102 54.6079 0.874084 53.7977 1.472 53.1998C2.06991 52.6019 2.88016 52.2649 3.72573 52.2625H62.6032C63.4487 52.2649 64.259 52.6019 64.8569 53.1998C65.4548 53.7977 65.7918 54.6079 65.7942 55.4535C65.7922 56.2991 65.4555 57.1096 64.8577 57.7077C64.2598 58.3058 63.4496 58.6429 62.6039 58.6453Z" fill="#252525"/>
<path d="M28.0941 38.3535H24.9845C23.9805 38.3535 23.2856 39.2084 23.1925 40.1862C23.1925 40.1862 23.1395 49.1721 24.9645 49.415H27.0801L28.001 49.4104C29.826 49.1675 29.9183 40.1801 29.9183 40.1801C29.9175 39.6963 29.7251 39.2325 29.3832 38.8902C29.0414 38.5479 28.5778 38.3549 28.0941 38.3535Z" fill="#BFD0E0"/>
<path d="M27.49 40.8288C27.4573 40.8288 27.425 40.8208 27.3962 40.8053C27.3674 40.7899 27.3428 40.7675 27.3247 40.7403C27.3066 40.713 27.2955 40.6817 27.2924 40.6492C27.2893 40.6166 27.2943 40.5838 27.307 40.5536L29.3626 35.6606C29.3743 35.6323 29.3924 35.6073 29.4157 35.5875L31.6981 33.6118C31.7178 33.5948 31.7407 33.5818 31.7655 33.5736C31.7902 33.5654 31.8164 33.5621 31.8424 33.564C31.8684 33.5659 31.8938 33.5729 31.9171 33.5846C31.9404 33.5963 31.9612 33.6125 31.9783 33.6322C31.9953 33.652 32.0084 33.6749 32.0166 33.6996C32.0248 33.7244 32.028 33.7505 32.0261 33.7765C32.0242 33.8026 32.0172 33.828 32.0055 33.8513C31.9938 33.8746 31.9777 33.8954 31.9579 33.9124L29.7109 35.8573L27.6737 40.7066C27.6585 40.7428 27.6329 40.7736 27.6002 40.7954C27.5676 40.8171 27.5292 40.8287 27.49 40.8288Z" fill="#414141"/>
<path d="M26.6473 45.8395C26.4837 45.8389 26.3269 45.7736 26.2112 45.6578C26.0956 45.542 26.0304 45.3851 26.03 45.2214V43.1374C26.03 42.7976 26.3075 42.5193 26.6473 42.5193C26.9871 42.5193 27.2646 42.7976 27.2646 43.1374V45.2214C27.2642 45.3851 27.1991 45.542 27.0834 45.6578C26.9678 45.7736 26.811 45.8389 26.6473 45.8395Z" fill="#BFD0E0"/>
<path d="M27.6859 50.6896C27.6859 51.1647 27.1178 51.5498 26.4167 51.5498C25.7156 51.5498 25.1475 51.1647 25.1475 50.6896C25.1475 50.2145 25.7156 49.8293 26.4167 49.8293C27.1178 49.8293 27.6859 50.2145 27.6859 50.6896Z" fill="#BFD0E0"/>
<path d="M27.9819 39.2244H25.0591C24.1159 39.2244 23.3433 39.9631 23.3433 40.8656C23.3433 40.8656 23.3433 48.919 25.0591 49.1373H27.9819C29.6977 48.919 29.6977 40.8656 29.6977 40.8656C29.6969 39.9631 28.9251 39.2244 27.9819 39.2244Z" fill="#212121"/>
<path d="M27.9819 39.2998H25.0591C24.1159 39.2998 23.3433 40.0386 23.3433 40.9411C23.3433 40.9411 23.3433 48.9944 25.0591 49.2128H27.9819C29.6977 48.9944 29.6977 40.9411 29.6977 40.9411C29.6969 40.0386 28.9251 39.2998 27.9819 39.2998Z" fill="#2ACD52"/>
<path d="M28.018 39.2998H25.0952C24.152 39.2998 23.3794 40.0386 23.3794 40.9411C23.3794 40.9411 23.3794 48.9944 25.0952 49.2128H28.018C29.7338 48.9944 29.7338 40.9411 29.7338 40.9411C29.7331 40.0386 28.9613 39.2998 28.018 39.2998Z" fill="white"/>
<path opacity="0.33" d="M28.018 39.2998H25.0952C24.152 39.2998 23.3794 40.0386 23.3794 40.9411C23.3794 40.9411 23.3794 48.9944 25.0952 49.2128H28.018C29.7338 48.9944 29.7338 40.9411 29.7338 40.9411C29.7331 40.0386 28.9613 39.2998 28.018 39.2998Z" fill="black"/>
<path d="M28.5355 37.9391C28.2295 37.7516 27.9113 37.6739 27.5476 37.657C27.3539 37.6478 27.1156 37.6632 26.8688 37.6693C26.6454 37.4684 26.3665 37.3397 26.0686 37.3003C25.9708 37.29 25.8722 37.2884 25.7742 37.2957C25.7494 37.2306 25.7059 37.1743 25.6491 37.1341C25.5923 37.0938 25.5247 37.0714 25.4551 37.0697C25.4298 36.9972 25.4123 36.9222 25.4028 36.846C25.3882 36.7284 25.2545 36.6699 25.1745 36.7299C25.1437 36.7269 25.1129 36.7351 25.0877 36.753C24.9717 36.8263 24.8817 36.9341 24.8303 37.0612C24.7789 37.1884 24.7686 37.3285 24.8009 37.4617C24.5841 37.5494 24.4012 37.7024 24.2882 37.9261L24.2666 37.9753C24.2161 38.0294 24.1725 38.0896 24.1367 38.1544C23.6609 38.4995 23.3442 39.0984 23.3442 39.778C23.3442 39.778 23.3418 40.6659 23.3549 41.2686H29.7001C29.7263 40.3714 29.7263 39.778 29.7263 39.778C29.7255 38.9231 29.2243 38.1928 28.5355 37.9391Z" fill="#2ACD52"/>
<path d="M28.5747 49.0552C28.5994 49.0584 28.6244 49.0597 28.6493 49.059C30.5857 49.0183 31.8496 47.1095 32.1071 45.3468C32.2324 44.4888 32.1217 43.5494 31.4959 42.8991C31.0132 42.3971 30.359 42.2256 29.7301 42.3963L29.7532 43.3157C30.4159 42.9613 30.9947 43.4602 31.1961 44.0691C31.4006 44.6879 31.2599 45.4167 31.0508 46.0125C30.7157 46.968 30.013 47.9536 28.9845 48.1511L28.5747 49.0552Z" fill="#BFD0E0"/>
<path d="M24.6248 51.6121H28.2086C28.3306 51.6125 28.4474 51.6611 28.5335 51.7474C28.6197 51.8337 28.6681 51.9506 28.6683 52.0725C28.6683 52.3255 24.165 52.3255 24.165 52.0725C24.1652 51.9506 24.2137 51.8337 24.2999 51.7474C24.386 51.6611 24.5028 51.6125 24.6248 51.6121Z" fill="#BFD0E0"/>
<path d="M27.2646 49.4104V51.9373H25.5349V49.4104H27.2646Z" fill="#BFD0E0"/>
<path d="M60.4515 123C60.3155 123 60.1814 122.968 60.0599 122.907C59.9383 122.846 59.8327 122.757 59.7515 122.648C59.6703 122.539 59.6156 122.413 59.5919 122.279C59.5683 122.145 59.5762 122.007 59.6151 121.877L72.4078 78.8894C72.603 78.1588 73.0338 77.513 73.6334 77.0522C74.233 76.5914 74.968 76.3414 75.7242 76.341H75.738L76.3215 76.3433C80.0868 76.3617 86.3882 76.3917 91.9808 75.5415C98.3622 74.5721 102.004 72.6848 102.512 70.0834C102.814 68.5359 102.047 68.1231 100.665 67.5273C100.542 67.4743 100.422 67.4228 100.306 67.3705C100.096 67.2746 99.9331 67.0996 99.8518 66.8836C99.7706 66.6677 99.7781 66.4284 99.8728 66.2179C99.9674 66.0075 100.142 65.8431 100.357 65.7606C100.572 65.6781 100.812 65.6842 101.023 65.7777C101.13 65.8261 101.241 65.8738 101.356 65.923C102.563 66.4442 104.812 67.4136 104.225 70.4178C103.544 73.9056 99.6237 76.1457 92.243 77.2673C86.5158 78.1376 80.1298 78.1068 76.313 78.0884L75.7303 78.086H75.7234C74.957 78.086 74.2858 78.6034 74.0906 79.3468L74.0829 79.3737L61.2864 122.373C61.2337 122.554 61.1238 122.713 60.9733 122.826C60.8228 122.939 60.6397 123 60.4515 123Z" fill="#414141"/>
<path d="M53.954 50.0039C53.9225 50.0041 53.8917 49.9956 53.8648 49.9793L52.3719 49.0891C52.3515 49.0778 52.3335 49.0625 52.3191 49.0441C52.3047 49.0257 52.2941 49.0046 52.288 48.982C52.2819 48.9595 52.2804 48.9359 52.2836 48.9128C52.2868 48.8896 52.2946 48.8673 52.3065 48.8473C52.3185 48.8272 52.3343 48.8097 52.3531 48.7959C52.372 48.782 52.3934 48.7721 52.4161 48.7667C52.4388 48.7613 52.4624 48.7605 52.4855 48.7644C52.5085 48.7683 52.5305 48.7767 52.5502 48.7893L54.0431 49.6795C54.076 49.699 54.1014 49.7288 54.1157 49.7643C54.13 49.7997 54.1322 49.8388 54.1221 49.8757C54.1119 49.9125 54.09 49.945 54.0597 49.9681C54.0293 49.9913 53.9922 50.0039 53.954 50.0039Z" fill="#414141"/>
<path d="M70.8464 2.01188C67.8468 2.46775 64.2252 4.98231 64.116 8.78683C64.0984 9.41182 64.236 10.1713 64.3874 10.2159C64.4566 10.2359 64.5066 9.56173 65.7012 8.60772C66.2401 8.17799 66.7236 7.59528 66.9942 7.27625C67.1718 7.06715 67.3724 6.8765 67.5862 6.702C67.7361 6.57977 67.9198 6.48675 68.0374 6.33223C68.1235 6.21846 68.1666 6.06394 68.1089 5.93479C68.1004 5.91557 68.0897 5.89712 68.0851 5.87636C68.0566 5.74721 68.2588 5.57809 68.3241 5.47892C68.4487 5.28751 68.5694 5.08917 68.6301 4.86854C68.6401 4.83087 68.6493 4.79243 68.6739 4.76168C68.6893 4.7417 68.7101 4.72709 68.7308 4.71248C69.4699 4.19033 70.1712 3.61671 70.8295 2.99588C70.9056 2.92285 71.0063 2.77525 71.1016 2.73066C71.3299 2.50234 71.1793 1.96114 70.8464 2.01188Z" fill="#252525"/>
<path d="M76.4175 1.92121C75.0138 1.31237 73.3402 1.11787 71.8065 1.34773C71.3372 1.41573 70.8857 1.57477 70.4774 1.81589C70.2514 1.91045 70.0307 2.01577 69.8201 2.13954C69.609 2.26545 69.4073 2.4065 69.2166 2.56158C68.3126 2.88522 67.2902 3.58247 66.9827 4.42809C66.7849 4.86181 66.6847 5.33363 66.689 5.81029C66.626 6.24233 66.6521 6.24771 66.8159 6.67052C66.9619 7.0472 67.7176 8.29027 70.1253 9.29194C72.3823 10.2313 72.849 9.71014 74.6586 10.3282C75.0138 10.4497 75.555 10.4105 76.3306 10.5281C76.7234 10.5873 77.1678 10.4781 77.5268 10.2952C78.1695 9.9669 78.952 8.94985 79.321 8.27335C80.0298 6.9711 80.0337 6.43451 79.5071 5.04001C78.9728 3.62552 77.7897 2.51622 76.4175 1.92121Z" fill="#252525"/>
<path d="M82.7258 16.106C82.7427 16.0491 82.7581 15.9914 82.7712 15.933C82.8065 15.7808 82.785 15.6178 82.7812 15.4633C82.7703 14.8665 82.7456 14.2701 82.7074 13.6744C82.6605 12.9001 82.5729 12.1287 82.4452 11.3636C82.3225 10.6253 82.14 9.89822 81.8994 9.18955C81.6632 8.49631 81.3499 7.83179 80.9654 7.2085C80.7952 6.93611 80.6102 6.67331 80.4111 6.4213C80.0852 6.01002 79.557 4.59707 79.1058 4.32955C78.7214 4.102 78.0834 4.88689 77.9911 5.49343C77.9104 6.02771 78.2117 6.63424 78.623 6.95942C78.5085 6.90023 78.3939 7.04091 78.3517 7.16237C78.2694 7.40409 78.2409 7.66083 78.2681 7.91469C78.2954 8.16856 78.3776 8.41343 78.5092 8.63221C78.1725 8.72216 77.7636 8.84439 77.619 9.19878C77.4568 9.59853 77.6913 10.0667 77.7897 10.4588C77.9142 10.9569 78.0503 11.4527 78.1802 11.9493C78.3248 12.5005 78.3263 12.6274 78.0196 13.1594C77.955 13.1301 76.9502 14.5193 76.8941 14.6661C76.4137 15.9168 76.2445 17.3206 76.4997 18.642C76.6858 19.6084 77.1793 19.337 77.875 19.1348C78.4754 18.9595 79.115 19.0756 79.7146 18.9219C80.387 18.7462 81.0068 18.4104 81.5212 17.9433C82.0655 17.452 82.5167 16.8163 82.7258 16.106Z" fill="#252525"/>
<path d="M76.3638 13.4954C76.2961 12.4538 76.5744 11.4806 77.0657 10.5565C77.174 10.352 77.3286 10.1537 77.5092 10.0023C77.9244 9.65247 78.3871 9.76779 78.5885 10.2567C78.6531 10.4128 78.6939 10.585 78.7039 10.7518C78.7923 12.1832 78.3495 13.4201 77.1471 14.3703C77.0956 14.411 77.0449 14.4564 76.9857 14.4863C76.6628 14.6516 76.3892 14.5294 76.3446 14.1919C76.3284 14.0681 76.3584 13.939 76.363 13.8129C76.3669 13.7068 76.3638 13.6015 76.3638 13.4954Z" fill="white"/>
<path opacity="0.42" d="M77.0063 13.3346H77.0025C76.9563 13.3334 76.9124 13.314 76.8804 13.2806C76.8485 13.2472 76.831 13.2025 76.8318 13.1563C76.8549 12.1015 77.0786 11.3205 77.4952 10.8346C77.7943 10.4856 78.1002 10.4072 78.1833 10.4072C78.228 10.4077 78.2708 10.4252 78.303 10.4564C78.3351 10.4875 78.3541 10.5297 78.356 10.5744C78.3578 10.6191 78.3425 10.6628 78.3131 10.6965C78.2836 10.7302 78.2424 10.7513 78.1979 10.7555C78.1756 10.7601 77.9765 10.8085 77.7597 11.0614C77.5106 11.3528 77.2077 11.9532 77.1808 13.1639C77.1798 13.2096 77.161 13.253 77.1284 13.2849C77.0958 13.3168 77.0519 13.3346 77.0063 13.3346Z" fill="black"/>
<path opacity="0.42" d="M77.9326 11.8303C77.9151 11.8231 77.8994 11.812 77.8867 11.798C77.8739 11.7839 77.8644 11.7672 77.8588 11.7491C77.8532 11.731 77.8517 11.7119 77.8544 11.6931C77.857 11.6743 77.8638 11.6563 77.8742 11.6405C77.9503 11.5244 77.9718 11.4237 77.9364 11.3414C77.9095 11.2784 77.858 11.2446 77.8572 11.2438C77.8288 11.2252 77.8087 11.1962 77.8014 11.163C77.7941 11.1298 77.8 11.0951 77.818 11.0662C77.836 11.0377 77.8644 11.0173 77.8972 11.0096C77.93 11.0018 77.9645 11.0072 77.9933 11.0247C78.0971 11.0934 78.1706 11.1994 78.1986 11.3207C78.2309 11.466 78.194 11.6212 78.0886 11.7819C78.0723 11.8069 78.0478 11.8253 78.0193 11.8342C77.9908 11.843 77.9602 11.8417 77.9326 11.8303Z" fill="black"/>
<path d="M79.0282 16.3944C78.1979 15.5926 77.9258 13.9144 77.6752 12.8113C77.3641 11.4466 77.2249 10.0485 77.2608 8.64929C77.2677 8.30258 76.7504 8.3095 76.7273 8.64929C76.7196 8.76614 76.7019 8.88222 76.6804 8.9983C76.5682 8.99753 76.4559 9.05672 76.426 9.18741C76.2476 9.95846 76.0508 10.6073 76.0239 11.3468C75.9947 11.2775 75.9587 11.2113 75.9163 11.1492C75.7641 10.9325 75.4727 11.0132 75.4258 11.2569C75.4135 11.2919 75.4096 11.3292 75.4143 11.366C75.4058 11.6066 75.465 11.868 75.5542 12.1286C75.7056 12.7675 75.9347 13.3886 76.1923 13.9936C76.4029 14.4887 76.6697 15.0483 77.1655 15.3205C77.2232 15.352 77.2808 15.3604 77.3338 15.3527C77.3592 15.4189 77.3838 15.4865 77.4092 15.5511C77.5007 15.7863 77.7989 15.7786 77.9012 15.6172C78.0865 16.0546 78.324 16.4559 78.6499 16.7711C78.8975 17.0109 79.2757 16.6335 79.0282 16.3944Z" fill="#252525"/>
<path d="M77.835 16.1499C77.7205 14.7079 77.4724 13.2795 77.0939 11.8834C77.1646 11.6912 77.1316 11.4529 77.0416 11.2015C77.0378 10.3328 76.7664 9.31192 75.7132 9.51256C75.3458 9.58252 74.9353 9.25888 74.8822 9.63864C74.8315 10.0007 75.1613 10.9332 75.2804 11.2668C75.6556 12.3185 75.8785 13.4924 76.0392 14.5978C76.1553 15.3981 76.1184 16.2583 76.083 17.0639C76.0644 17.4859 76.0324 17.9071 75.9869 18.327C75.9585 18.5899 75.9831 18.9989 76.1499 19.2095C76.3413 19.4509 76.6357 19.4109 76.8564 19.3809C77.1754 19.3379 77.2215 19.3433 77.4514 19.1496C77.5275 19.0857 77.5321 18.962 77.6082 18.8982C77.8319 18.7121 77.8649 18.9966 78.0133 18.7006C78.094 18.5399 77.5175 18.5415 77.5298 18.3677C77.9672 17.7973 77.8919 16.8894 77.835 16.1499Z" fill="#252525"/>
<path opacity="0.42" d="M79.1065 4.50492C79.0749 4.50497 79.0439 4.49641 79.0168 4.48016C78.9897 4.4639 78.9675 4.44057 78.9527 4.41267C78.3884 3.35641 75.621 2.181 75.5925 2.16947C75.5714 2.16058 75.5523 2.14763 75.5362 2.13135C75.5201 2.11507 75.5074 2.09578 75.4987 2.07458C75.4901 2.05337 75.4857 2.03068 75.4858 2.00779C75.486 1.98489 75.4906 1.96225 75.4995 1.94115C75.5084 1.92005 75.5213 1.90091 75.5376 1.88482C75.5539 1.86872 75.5732 1.85599 75.5944 1.84736C75.6156 1.83872 75.6383 1.83434 75.6612 1.83448C75.6841 1.83461 75.7067 1.83925 75.7278 1.84813C75.8462 1.8981 78.6375 3.08351 79.2602 4.24892C79.2742 4.27548 79.2812 4.3052 79.2803 4.33521C79.2795 4.36523 79.271 4.39452 79.2555 4.42026C79.24 4.446 79.2182 4.46732 79.1921 4.48215C79.166 4.49698 79.1365 4.50482 79.1065 4.50492Z" fill="black"/>
<path d="M24.8347 49.4103C24.8045 49.41 24.7749 49.4021 24.7486 49.3872C24.7148 49.3672 24.4065 49.1704 24.0183 48.3202C23.6585 47.5314 23.5594 46.6051 23.4341 45.432C23.4071 45.1768 23.3779 44.91 23.3456 44.6302C23.165 43.0866 23.1688 40.2084 23.1688 40.1799C23.1688 40.0838 23.1442 39.6633 23.2403 39.6633L23.4625 39.7448C23.5586 39.7448 23.5178 40.0846 23.5178 40.1815C23.5178 40.2099 23.514 43.0673 23.6924 44.5902C23.7254 44.8716 23.7539 45.1391 23.7815 45.3959C23.9038 46.5375 23.9999 47.4392 24.3366 48.1764C24.674 48.9159 24.9262 49.0874 24.9285 49.0889C24.9667 49.114 24.9938 49.1529 25.004 49.1975C25.0141 49.242 25.0067 49.2888 24.9831 49.328C24.9672 49.353 24.9453 49.3737 24.9194 49.3881C24.8935 49.4024 24.8644 49.4101 24.8347 49.4103Z" fill="#703030"/>
<path d="M27.7567 49.415L27.5929 49.4135C27.5322 49.4127 27.4684 49.4112 27.4023 49.4112C27.356 49.4112 27.3116 49.3928 27.2789 49.3601C27.2462 49.3274 27.2278 49.283 27.2278 49.2367C27.2278 49.1904 27.2462 49.146 27.2789 49.1133C27.3116 49.0806 27.356 49.0622 27.4023 49.0622C27.4707 49.0622 27.5361 49.0629 27.5983 49.0645C28.0181 49.0714 28.2102 49.0653 28.3678 48.8554C28.7899 48.2942 28.9213 47.7914 29.0489 47.3048L29.0574 47.2733C29.3856 46.0172 29.4902 44.6634 29.5517 42.8853C29.5923 41.7944 29.5703 40.702 29.4856 39.6135C29.482 39.5679 29.4966 39.5226 29.5261 39.4876C29.5557 39.4525 29.5978 39.4305 29.6434 39.4263C29.689 39.422 29.7345 39.4359 29.77 39.4649C29.8055 39.4939 29.8281 39.5357 29.8331 39.5812C29.8346 39.5951 29.9653 41.025 29.9007 42.8976C29.8377 44.6996 29.7316 46.0756 29.3949 47.3625L29.3864 47.394C29.2573 47.8891 29.1104 48.4503 28.6469 49.066C28.4109 49.3774 28.1072 49.415 27.7567 49.415Z" fill="#703030"/>
<path d="M25.6466 40.1862C25.5197 40.1862 25.3844 40.1846 25.243 40.18C23.594 40.1316 23.2681 39.8394 23.2074 39.751C23.1814 39.7142 23.1707 39.6688 23.1775 39.6242C23.1843 39.5797 23.2081 39.5395 23.2439 39.5121C23.2796 39.4847 23.3246 39.4722 23.3694 39.4771C23.4142 39.4821 23.4553 39.5043 23.4841 39.5389C23.5087 39.5596 23.8216 39.7887 25.253 39.831C26.2577 39.8602 26.9104 39.7664 26.9166 39.7649C26.9624 39.758 27.0091 39.7697 27.0464 39.7973C27.0837 39.8249 27.1084 39.8662 27.1153 39.9121C27.1221 39.958 27.1104 40.0047 27.0828 40.0419C27.0552 40.0792 27.0139 40.104 26.9681 40.1108C26.9442 40.1147 26.4492 40.1862 25.6466 40.1862Z" fill="#703030"/>
<path d="M24.1651 52.1118C24.1366 52.1118 24.1085 52.1048 24.0833 52.0915C24.0581 52.0781 24.0366 52.0588 24.0206 52.0352C24.0046 52.0116 23.9946 51.9845 23.9915 51.9562C23.9884 51.9278 23.9923 51.8992 24.0029 51.8727C24.0536 51.7451 24.2081 51.5229 24.4672 51.5006C24.6978 51.4814 25.1752 51.4883 25.4412 51.4952C25.4395 51.4806 25.4364 51.4662 25.432 51.4522C25.1314 51.3053 24.973 51.0424 24.973 50.6896C24.973 50.3598 25.2282 50.0992 25.3612 49.9862V49.5388C25.3612 49.4925 25.3796 49.4481 25.4124 49.4154C25.4451 49.3826 25.4895 49.3643 25.5357 49.3643C25.582 49.3643 25.6264 49.3826 25.6591 49.4154C25.6919 49.4481 25.7102 49.4925 25.7102 49.5388V50.0707C25.7103 50.0985 25.7037 50.126 25.691 50.1507C25.6783 50.1754 25.6598 50.1968 25.6372 50.213C25.5503 50.276 25.3228 50.4851 25.3228 50.6896C25.3228 50.9164 25.4135 51.0616 25.6072 51.1485C25.784 51.2269 25.8086 51.4837 25.7987 51.6843C25.7979 51.7071 25.7926 51.7294 25.7831 51.75C25.7736 51.7707 25.7601 51.7893 25.7433 51.8046C25.7266 51.82 25.7069 51.8319 25.6856 51.8396C25.6642 51.8474 25.6415 51.8507 25.6188 51.8496C25.6103 51.8496 24.8001 51.8235 24.4972 51.8488C24.3911 51.8581 24.3288 51.9995 24.328 52.0011C24.315 52.0337 24.2925 52.0616 24.2635 52.0813C24.2345 52.1011 24.2002 52.1117 24.1651 52.1118Z" fill="#703030"/>
<path d="M2.2758 55.7855C2.2341 55.7854 2.19382 55.7704 2.16223 55.7432C2.13064 55.716 2.10984 55.6784 2.1036 55.6371C2.09899 55.6072 1.99905 54.9022 2.44262 54.3672C2.73628 54.0128 3.1906 53.8229 3.79253 53.8014C5.69441 53.7345 52.9438 53.8006 53.4204 53.8014C53.4667 53.8014 53.5111 53.8198 53.5438 53.8525C53.5765 53.8852 53.5949 53.9296 53.5949 53.9759C53.5949 54.0222 53.5765 54.0666 53.5438 54.0993C53.5111 54.132 53.4667 54.1504 53.4204 54.1504C52.943 54.1496 5.70133 54.0835 3.8056 54.1504C3.30745 54.1681 2.93923 54.3157 2.71168 54.5901C2.36651 55.006 2.44876 55.5787 2.44953 55.5849C2.45639 55.6306 2.44488 55.6772 2.41752 55.7145C2.39016 55.7518 2.34917 55.7768 2.30347 55.784C2.29271 55.7855 2.28425 55.7855 2.2758 55.7855Z" fill="#414141"/>
<path opacity="0.42" d="M76.9148 9.08885C74.8246 9.08885 73.4524 8.28551 73.3817 8.24323C73.3419 8.21948 73.3132 8.1809 73.3019 8.13599C73.2906 8.09109 73.2976 8.04352 73.3213 8.00376C73.3451 7.96401 73.3837 7.93531 73.4286 7.924C73.4735 7.91268 73.5211 7.91967 73.5608 7.94342C73.5816 7.95572 75.6426 9.15727 78.4977 8.57994C78.5416 8.57445 78.586 8.5858 78.6219 8.6117C78.6578 8.6376 78.6826 8.67614 78.6913 8.71956C78.7 8.76299 78.6919 8.80808 78.6686 8.84578C78.6454 8.88348 78.6088 8.911 78.5661 8.9228C77.9788 9.04119 77.4253 9.08885 76.9148 9.08885Z" fill="black"/>
<path opacity="0.42" d="M79.8399 16.7133C79.8141 16.7133 79.7887 16.7077 79.7654 16.6967C79.7422 16.6858 79.7216 16.6698 79.7052 16.65C79.6888 16.6301 79.677 16.6069 79.6707 16.582C79.6643 16.5571 79.6635 16.531 79.6684 16.5058L80.0689 14.4171C80.4564 12.3968 79.53 9.53325 79.5208 9.50481C79.5065 9.46077 79.5102 9.41284 79.531 9.3715C79.5519 9.33016 79.5883 9.29876 79.6323 9.28418C79.654 9.27698 79.677 9.27416 79.6999 9.27588C79.7227 9.27759 79.745 9.28381 79.7654 9.29417C79.7858 9.30453 79.804 9.31883 79.8189 9.33624C79.8338 9.35366 79.8451 9.37385 79.8521 9.39565C79.8914 9.51634 80.8162 12.3745 80.4118 14.4832L80.0113 16.5719C80.0035 16.6116 79.9821 16.6475 79.9509 16.6733C79.9196 16.699 79.8804 16.7132 79.8399 16.7133Z" fill="black"/>
<path d="M72.7982 40.6051C72.768 40.6052 72.7383 40.5974 72.7121 40.5826C72.6858 40.5678 72.6638 40.5464 72.6483 40.5206C72.6283 40.4875 72.1609 39.7049 71.6366 38.4196C71.1092 37.1258 70.9132 35.6605 70.9048 35.5983C70.8989 35.5524 70.9113 35.5061 70.9394 35.4694C70.9674 35.4327 71.0089 35.4086 71.0547 35.4022C71.0774 35.3991 71.1006 35.4005 71.1229 35.4064C71.1451 35.4123 71.1659 35.4226 71.1842 35.4366C71.2024 35.4506 71.2177 35.4681 71.2291 35.4881C71.2405 35.5081 71.2479 35.5301 71.2507 35.5529C71.2522 35.5675 71.4498 37.0366 71.9595 38.2873C72.4722 39.5458 72.9419 40.333 72.9465 40.3407C72.9624 40.3671 72.971 40.3972 72.9715 40.428C72.972 40.4588 72.9643 40.4891 72.9492 40.516C72.9341 40.5429 72.9122 40.5653 72.8857 40.5809C72.8592 40.5966 72.829 40.6049 72.7982 40.6051Z" fill="#414141"/>
<path d="M43.0639 37.7392C43.0176 37.7403 42.9728 37.7228 42.9394 37.6908C42.9059 37.6588 42.8866 37.6149 42.8855 37.5686C42.8845 37.5223 42.9019 37.4775 42.9339 37.444C42.9659 37.4106 43.0099 37.3912 43.0562 37.3902C43.1531 37.3772 43.489 37.2495 43.5513 37.1204C43.6021 37.0004 43.6179 36.8684 43.5966 36.7399C43.588 36.6945 43.5977 36.6476 43.6234 36.6093C43.6492 36.5711 43.689 36.5445 43.7342 36.5354C43.7794 36.5263 43.8263 36.5356 43.8646 36.5611C43.903 36.5866 43.9296 36.6263 43.9387 36.6714C43.9449 36.7037 43.9979 36.9943 43.8657 37.2711C43.7165 37.5832 43.1738 37.7392 43.0639 37.7392Z" fill="#414141"/>
<path d="M104.359 81.1327C104.05 81.1327 103.751 80.9681 103.593 80.6776C103.584 80.6622 102.71 79.0693 101.57 77.7494C100.332 76.3142 98.602 75.5177 98.5843 75.5093C98.3832 75.4079 98.229 75.2327 98.1538 75.0204C98.0787 74.808 98.0884 74.5748 98.181 74.3695C98.2737 74.1641 98.442 74.0024 98.6509 73.9182C98.8598 73.8339 99.0932 73.8336 99.3024 73.9172C99.3869 73.9557 101.393 74.872 102.891 76.6071C104.156 78.0723 105.086 79.7697 105.125 79.8412C105.197 79.9741 105.234 80.1236 105.231 80.275C105.229 80.4264 105.187 80.5745 105.109 80.7047C105.032 80.835 104.922 80.9429 104.791 81.0179C104.659 81.093 104.511 81.1325 104.359 81.1327Z" fill="#414141"/>
<path d="M71.8828 84.5828C71.7242 84.5824 71.5688 84.5388 71.4331 84.4567C71.2975 84.3746 71.1867 84.2571 71.1128 84.1169C71.0388 83.9766 71.0044 83.8189 71.0133 83.6606C71.0222 83.5023 71.074 83.3494 71.1632 83.2183C71.2478 83.0945 73.2496 80.1694 74.8855 78.9779C77.4024 77.1437 80.3613 76.4464 80.4858 76.418C80.7111 76.3671 80.9474 76.4075 81.143 76.5304C81.3385 76.6533 81.4775 76.8487 81.5293 77.0738C81.5812 77.2988 81.5417 77.5353 81.4196 77.7314C81.2975 77.9275 81.1027 78.0672 80.8779 78.12C80.8517 78.1261 78.1334 78.7719 75.9125 80.3901C74.7563 81.2326 73.1327 83.4282 72.6054 84.2031C72.5248 84.3203 72.417 84.4161 72.291 84.4823C72.1651 84.5485 72.025 84.583 71.8828 84.5828Z" fill="#414141"/>
<path d="M103.286 72.5436C103.156 72.5437 103.028 72.5148 102.911 72.4591C102.793 72.4034 102.69 72.3222 102.608 72.2214C102.526 72.1206 102.468 72.0028 102.437 71.8766C102.407 71.7504 102.405 71.619 102.431 71.4919L107.45 47.3818C107.474 47.2697 107.519 47.1633 107.584 47.0686C107.648 46.974 107.731 46.8931 107.826 46.8303C107.922 46.7676 108.03 46.7244 108.142 46.7032C108.255 46.6819 108.37 46.683 108.482 46.7064C108.594 46.7298 108.701 46.7751 108.795 46.8397C108.89 46.9042 108.971 46.9867 109.034 47.0826C109.096 47.1784 109.14 47.2857 109.161 47.3982C109.182 47.5107 109.181 47.6263 109.158 47.7385L104.139 71.8486C104.054 72.2599 103.691 72.5436 103.286 72.5436Z" fill="#414141"/>
<path d="M100.666 74.6197C100.542 74.6197 100.42 74.5934 100.307 74.5424C100.194 74.4915 100.093 74.4171 100.011 74.3243C99.9296 74.2315 99.8683 74.1223 99.8318 74.004C99.7953 73.8856 99.7844 73.7609 99.7997 73.6381L102.516 51.8995C102.545 51.6699 102.664 51.4612 102.847 51.3191C103.029 51.1771 103.261 51.1135 103.49 51.1423C103.72 51.171 103.929 51.2898 104.071 51.4724C104.213 51.6551 104.276 51.8867 104.248 52.1163L101.531 73.8548C101.505 74.0657 101.402 74.2598 101.243 74.4006C101.084 74.5414 100.879 74.6193 100.666 74.6197Z" fill="#414141"/>
<path d="M78.9613 117.872C78.9251 117.873 78.8895 117.862 78.8597 117.842C78.8299 117.821 78.8073 117.791 78.795 117.757C78.7828 117.723 78.7816 117.686 78.7916 117.651C78.8016 117.616 78.8222 117.585 78.8506 117.563C78.9233 117.51 78.9968 117.459 79.0713 117.409C79.491 117.121 80.7694 116.246 80.9363 115.989C80.9487 115.97 80.9649 115.953 80.9837 115.94C81.0026 115.927 81.0239 115.918 81.0463 115.913C81.0687 115.908 81.0918 115.908 81.1144 115.912C81.1369 115.916 81.1584 115.925 81.1776 115.938C81.1969 115.95 81.2135 115.966 81.2265 115.985C81.2395 116.004 81.2486 116.025 81.2534 116.048C81.2582 116.07 81.2585 116.093 81.2543 116.116C81.2502 116.138 81.2416 116.16 81.2291 116.179C81.0485 116.456 80.1368 117.102 79.2688 117.697C79.1612 117.771 79.0882 117.82 79.069 117.836C79.0384 117.86 79.0004 117.873 78.9613 117.872Z" fill="#414141"/>
<path opacity="0.86" d="M88.3447 113.96L85.2666 81.6316L88.3447 113.96Z" fill="black"/>
</g>
<defs>
<clipPath id="clip0_23_372">
<rect width="110" height="123" fill="white" transform="translate(0.5)"/>
</clipPath>
</defs>
</svg>
