<svg width="1200" height="719" viewBox="0 0 1200 719" fill="none" xmlns="http://www.w3.org/2000/svg">
<path d="M48.225 160.991L25.2737 168.008L25.0129 179.632L6.10103 185.414L9.90726 113.478L30.6553 107.135L73.9451 164.672L54.9414 170.482L48.225 160.991ZM39.5164 148.596L26.1398 129.797L25.6538 152.834L39.5164 148.596Z" fill="#9747FF"/>
<path d="M183.572 88.7976L175.548 143.794L154.544 146.001L143.685 114.323L139.364 147.597L118.455 149.794L99.2679 97.6583L117.885 95.7015L127.633 130.586L131.825 94.2365L151.874 92.1292L163.828 126.878L166.004 90.644L183.572 88.7976Z" fill="#9747FF"/>
<path d="M224.906 93.9942C231.042 94.3158 235.79 96.6475 239.151 100.989C242.58 105.271 244.11 110.926 243.742 117.957L242.099 149.306L223.309 148.321L224.821 119.465C224.982 116.397 224.308 113.958 222.801 112.149C221.297 110.276 219.203 109.269 216.519 109.128C213.706 108.981 211.455 109.76 209.763 111.466C208.075 113.108 207.15 115.462 206.989 118.53L205.477 147.387L186.687 146.402L190.405 75.4592L209.195 76.4439L207.894 101.274C209.683 98.9322 212.022 97.1002 214.911 95.7776C217.867 94.3944 221.199 93.7999 224.906 93.9942Z" fill="#9747FF"/>
<path d="M273.801 154.395C268.454 153.833 263.766 152.214 259.735 149.538C255.769 146.868 252.793 143.338 250.81 138.947C248.826 134.555 248.128 129.559 248.717 123.958C249.299 118.42 251.017 113.71 253.87 109.827C256.787 105.951 260.463 103.12 264.898 101.333C269.397 99.5538 274.32 98.9451 279.666 99.507C285.013 100.069 289.669 101.685 293.636 104.354C297.666 107.03 300.674 110.563 302.657 114.955C304.705 119.353 305.438 124.321 304.856 129.858C304.274 135.396 302.521 140.135 299.597 144.074C296.743 147.957 293.067 150.789 288.569 152.568C284.07 154.348 279.147 154.957 273.801 154.395ZM275.507 138.164C278.116 138.438 280.381 137.711 282.3 135.982C284.29 134.196 285.475 131.489 285.856 127.861C286.238 124.233 285.638 121.371 284.056 119.274C282.538 117.184 280.506 116.005 277.96 115.738C275.414 115.47 273.182 116.201 271.263 117.93C269.343 119.658 268.193 122.337 267.812 125.965C267.424 129.656 267.957 132.544 269.411 134.627C270.865 136.711 272.897 137.89 275.507 138.164Z" fill="#9747FF"/>
<path d="M334.833 89.6948L326.176 160.205L307.5 157.912L316.158 87.4017L334.833 89.6948Z" fill="#9747FF"/>
<path d="M391.993 145.06C391.712 146.505 391.337 147.932 390.868 149.34L355.906 142.544C355.533 145.471 355.897 147.791 356.998 149.505C358.174 151.168 359.862 152.213 362.061 152.64C365.139 153.239 367.606 152.284 369.463 149.776L389.158 153.604C387.633 157.09 385.396 160.045 382.447 162.471C379.573 164.846 376.187 166.502 372.289 167.44C368.39 168.377 364.273 168.424 359.939 167.582C354.724 166.568 350.289 164.565 346.633 161.573C343.039 158.592 340.477 154.834 338.947 150.299C337.479 145.776 337.282 140.75 338.357 135.221C339.431 129.693 341.49 125.138 344.534 121.557C347.589 117.913 351.341 115.382 355.789 113.965C360.3 112.56 365.194 112.37 370.471 113.396C375.686 114.41 380.096 116.375 383.701 119.293C387.307 122.21 389.85 125.899 391.33 130.36C392.822 134.757 393.043 139.657 391.993 145.06ZM374.043 136.779C374.483 134.518 374.071 132.612 372.807 131.062C371.556 129.45 369.799 128.424 367.538 127.984C365.276 127.545 363.301 127.813 361.611 128.788C359.935 129.701 358.644 131.308 357.74 133.61L374.043 136.779Z" fill="#9747FF"/>
<path d="M479.514 134.386C485.511 135.992 489.733 139.277 492.18 144.239C494.643 149.14 494.964 154.99 493.142 161.79L485.017 192.113L466.842 187.243L474.321 159.331C475.116 156.364 474.965 153.839 473.866 151.756C472.785 149.611 470.946 148.19 468.349 147.494C465.629 146.766 463.264 147.06 461.255 148.376C459.262 149.631 457.869 151.743 457.073 154.71L449.595 182.621L431.42 177.751L445.359 125.731L463.534 130.6L461.546 138.019C463.783 136.1 466.451 134.795 469.553 134.102C472.67 133.347 475.991 133.441 479.514 134.386Z" fill="#9747FF"/>
<path d="M550.175 181.86C549.844 183.294 549.419 184.706 548.901 186.098L514.198 178.086C513.723 180.997 514.005 183.329 515.046 185.08C516.164 186.783 517.814 187.886 519.996 188.39C523.052 189.096 525.551 188.228 527.494 185.786L547.044 190.3C545.398 193.729 543.06 196.605 540.028 198.926C537.072 201.2 533.63 202.737 529.702 203.538C525.773 204.338 521.657 204.242 517.354 203.249C512.178 202.054 507.816 199.897 504.266 196.779C500.779 193.675 498.35 189.83 496.978 185.244C495.669 180.672 495.648 175.642 496.915 170.155C498.182 164.667 500.398 160.187 503.565 156.714C506.746 153.179 510.583 150.781 515.078 149.52C519.636 148.273 524.533 148.254 529.771 149.463C534.947 150.658 539.286 152.777 542.788 155.818C546.289 158.86 548.702 162.635 550.025 167.145C551.363 171.592 551.413 176.497 550.175 181.86ZM532.525 172.957C533.043 170.712 532.698 168.793 531.49 167.201C530.295 165.545 528.576 164.459 526.331 163.94C524.086 163.422 522.102 163.621 520.38 164.537C518.672 165.391 517.326 166.952 516.343 169.221L532.525 172.957Z" fill="#9747FF"/>
<path d="M638.97 172.563L615.218 222.81L594.486 218.78L593.363 185.311L579.502 215.868L558.864 211.856L555.759 156.388L574.135 159.96L573.258 196.17L587.894 162.635L607.683 166.481L608.955 203.207L621.63 169.192L638.97 172.563Z" fill="#9747FF"/>
<path d="M728.901 195.463C728.901 196.935 728.805 198.407 728.613 199.879L692.997 199.879C693.189 202.823 693.989 205.031 695.397 206.503C696.869 207.911 698.725 208.615 700.965 208.615C704.101 208.615 706.341 207.207 707.685 204.391L727.749 204.391C726.917 208.103 725.285 211.431 722.853 214.375C720.485 217.255 717.477 219.527 713.829 221.191C710.181 222.855 706.149 223.687 701.733 223.687C696.421 223.687 691.685 222.567 687.525 220.327C683.429 218.087 680.197 214.887 677.829 210.727C675.525 206.567 674.373 201.671 674.373 196.039C674.373 190.407 675.525 185.543 677.829 181.447C680.133 177.287 683.333 174.087 687.429 171.847C691.589 169.607 696.357 168.487 701.733 168.487C707.045 168.487 711.749 169.575 715.845 171.751C719.941 173.927 723.141 177.063 725.445 181.159C727.749 185.191 728.901 189.959 728.901 195.463ZM709.701 190.759C709.701 188.455 708.933 186.663 707.397 185.383C705.861 184.039 703.941 183.367 701.637 183.367C699.333 183.367 697.445 184.007 695.973 185.287C694.501 186.503 693.541 188.327 693.093 190.759H709.701Z" fill="#9747FF"/>
<path d="M766.599 220.949L756.437 207.76L749.234 221.555L728.607 222.276L745.573 193.73L725.959 168.479L747.067 167.742L757.229 180.932L764.528 167.132L785.155 166.412L767.789 194.491L787.707 220.212L766.599 220.949Z" fill="#9747FF"/>
<path d="M809.576 169.49C810.686 166.813 812.47 164.559 814.927 162.727C817.384 160.896 820.418 159.726 824.031 159.218C828.277 158.621 832.267 159.192 836.002 160.929C839.799 162.657 842.97 165.443 845.513 169.286C848.12 173.121 849.811 177.795 850.586 183.309C851.361 188.823 851.028 193.814 849.588 198.281C848.203 202.677 845.923 206.229 842.749 208.937C839.638 211.636 835.96 213.284 831.713 213.881C828.101 214.389 824.861 214.101 821.995 213.017C819.191 211.925 816.855 210.25 814.987 207.992L819.61 240.884L800.977 243.503L789.901 164.693L808.534 162.075L809.576 169.49ZM831.668 185.968C831.178 182.482 829.849 179.922 827.68 178.288C825.566 176.582 823.147 175.92 820.422 176.303C817.696 176.686 815.521 177.993 813.896 180.225C812.334 182.448 811.794 185.271 812.275 188.693C812.765 192.179 814.067 194.775 816.181 196.481C818.358 198.179 820.809 198.836 823.535 198.453C826.26 198.07 828.403 196.767 829.965 194.544C831.581 192.249 832.149 189.39 831.668 185.968Z" fill="#9747FF"/>
<path d="M906.052 165.543C906.458 166.958 906.771 168.399 906.992 169.867L872.756 179.684C873.752 182.461 875.13 184.363 876.889 185.39C878.692 186.338 880.67 186.503 882.823 185.886C885.838 185.021 887.603 183.05 888.119 179.973L907.405 174.443C907.629 178.24 906.977 181.889 905.451 185.389C903.969 188.811 901.703 191.824 898.655 194.429C895.607 197.034 891.961 198.945 887.716 200.162C882.61 201.626 877.748 201.855 873.132 200.849C868.577 199.824 864.589 197.639 861.166 194.293C857.804 190.929 855.347 186.54 853.795 181.127C852.243 175.713 852.009 170.72 853.095 166.147C854.163 161.513 856.357 157.555 859.677 154.273C863.058 150.973 867.333 148.582 872.501 147.101C877.607 145.636 882.429 145.386 886.966 146.348C891.503 147.311 895.443 149.443 898.787 152.746C902.113 155.986 904.535 160.252 906.052 165.543ZM886.299 166.313C885.664 164.099 884.432 162.588 882.602 161.781C880.756 160.912 878.725 160.795 876.51 161.431C874.295 162.066 872.657 163.201 871.595 164.837C870.515 166.412 870.095 168.43 870.334 170.891L886.299 166.313Z" fill="#9747FF"/>
<path d="M923.261 141.747C924.005 138.094 925.412 134.855 927.48 132.03C929.549 129.206 932.174 127.118 935.355 125.768L943.195 144.237L938.334 146.3C934.564 147.9 932.078 149.824 930.877 152.072C929.676 154.32 929.851 157.271 931.401 160.923L940.591 182.574L923.271 189.926L902.228 140.351L919.548 132.999L923.261 141.747Z" fill="#9747FF"/>
<path d="M948.75 112.22C945.759 113.679 942.95 114.052 940.324 113.339C937.727 112.541 935.825 110.905 934.619 108.431C933.385 105.9 933.252 103.366 934.222 100.828C935.249 98.2619 937.258 96.2495 940.249 94.7906C943.183 93.3598 945.948 93.0436 948.545 93.842C951.199 94.6124 953.144 96.2631 954.378 98.7941C955.585 101.268 955.674 103.787 954.647 106.353C953.649 108.834 951.684 110.789 948.75 112.22ZM959.308 112.625L982.917 161.03L966.005 169.279L942.396 120.873L959.308 112.625Z" fill="#9747FF"/>
<path d="M1027.41 107.098C1028.03 108.432 1028.57 109.806 1029.01 111.222L996.736 126.274C998.154 128.861 999.812 130.524 1001.71 131.263C1003.64 131.917 1005.62 131.77 1007.65 130.824C1010.49 129.498 1011.93 127.276 1011.95 124.155L1030.14 115.676C1030.95 119.392 1030.88 123.098 1029.92 126.794C1028.99 130.405 1027.23 133.735 1024.62 136.785C1022.02 139.835 1018.72 142.293 1014.71 144.159C1009.9 146.404 1005.13 147.39 1000.42 147.118C995.759 146.819 991.478 145.285 987.573 142.515C983.727 139.719 980.614 135.768 978.234 130.664C975.854 125.56 974.842 120.665 975.199 115.979C975.529 111.235 977.077 106.982 979.843 103.221C982.666 99.4328 986.514 96.4027 991.386 94.1307C996.201 91.8858 1000.92 90.8838 1005.56 91.1249C1010.19 91.366 1014.41 92.8558 1018.23 95.5943C1022.02 98.2748 1025.08 102.109 1027.41 107.098ZM1008.02 110.949C1007.05 108.86 1005.59 107.561 1003.66 107.05C1001.7 106.481 999.676 106.683 997.588 107.657C995.5 108.631 994.059 110.009 993.266 111.791C992.446 113.515 992.347 115.574 992.968 117.967L1008.02 110.949Z" fill="#9747FF"/>
<path d="M1056.02 64.6001C1061.78 62.2745 1067.13 62.357 1072.07 64.8475C1076.99 67.2787 1080.76 71.758 1083.4 78.2853L1095.16 107.391L1077.71 114.44L1066.89 87.6482C1065.74 84.7999 1064.1 82.8743 1061.97 81.8715C1059.81 80.8094 1057.49 80.7818 1055 81.7887C1052.38 82.8436 1050.67 84.5015 1049.86 86.7624C1049.02 88.9639 1049.18 91.4889 1050.33 94.3372L1061.16 121.129L1043.71 128.178L1023.54 78.2432L1040.98 71.1947L1043.86 78.3154C1044.49 75.4372 1045.84 72.7882 1047.9 70.3685C1049.93 67.8894 1052.64 65.9666 1056.02 64.6001Z" fill="#9747FF"/>
<path d="M1090.18 79.0219C1088.74 73.6436 1088.59 68.6472 1089.74 64.0327C1090.89 59.4181 1093.15 55.4989 1096.53 52.2751C1099.97 49.0347 1104.25 46.7271 1109.38 45.3523C1116 43.5799 1122.05 43.9128 1127.54 46.3509C1133.01 48.7272 1137.27 52.987 1140.31 59.1301L1121.02 64.2982C1119 61.1963 1116.38 60.076 1113.16 60.9374C1110.87 61.5503 1109.31 62.9971 1108.46 65.2779C1107.66 67.4804 1107.75 70.4053 1108.72 74.0526C1109.7 77.6999 1111.1 80.3079 1112.91 81.8764C1114.78 83.4284 1116.86 83.8979 1119.15 83.2851C1122.43 82.4071 1124.13 80.1274 1124.27 76.4457L1143.56 71.2776C1143.99 78.0547 1142.43 83.8715 1138.9 88.728C1135.36 93.5845 1130.28 96.899 1123.67 98.6714C1118.54 100.046 1113.67 100.19 1109.08 99.1032C1104.54 97.9996 1100.62 95.7369 1097.32 92.315C1094.02 88.893 1091.64 84.462 1090.18 79.0219Z" fill="#9747FF"/>
<path d="M1200.04 58.0805C1200.14 59.5489 1200.15 61.024 1200.06 62.5058L1164.53 64.9903C1164.93 67.9137 1165.88 70.0605 1167.39 71.4307C1168.96 72.7326 1170.86 73.3054 1173.09 73.1492C1176.22 72.9304 1178.36 71.3696 1179.5 68.4667L1199.52 67.0671C1198.94 70.8281 1197.55 74.2618 1195.33 77.3683C1193.17 80.4065 1190.32 82.8828 1186.8 84.7972C1183.28 86.7116 1179.31 87.8228 1174.91 88.1309C1169.61 88.5014 1164.81 87.7145 1160.5 85.7701C1156.26 83.8213 1152.81 80.8546 1150.16 76.8699C1147.57 72.8807 1146.08 68.077 1145.69 62.4588C1145.29 56.8405 1146.1 51.908 1148.12 47.6612C1150.12 43.3506 1153.09 39.9352 1157.02 37.4149C1161.02 34.8902 1165.7 33.4403 1171.06 33.0653C1176.36 32.6948 1181.13 33.452 1185.36 35.337C1189.6 37.222 1193.01 40.1271 1195.6 44.0524C1198.18 47.9139 1199.66 52.5899 1200.04 58.0805ZM1180.56 54.7273C1180.4 52.4289 1179.51 50.6948 1177.89 49.5251C1176.26 48.2915 1174.3 47.7551 1172 47.9158C1169.7 48.0765 1167.86 48.8466 1166.48 50.2262C1165.1 51.5419 1164.27 53.4284 1163.99 55.8858L1180.56 54.7273Z" fill="#9747FF"/>
</svg>
