<svg width="1104" height="253" viewBox="0 0 1104 253" fill="none" xmlns="http://www.w3.org/2000/svg">
<path d="M148.917 108.834C154.529 106.335 159.819 106.257 164.785 108.599C169.784 110.857 173.715 115.202 176.578 121.633L189.346 150.311L172.157 157.965L160.404 131.567C159.155 128.76 157.448 126.893 155.283 125.965C153.092 124.979 150.769 125.033 148.314 126.126C145.741 127.271 144.089 128.988 143.356 131.276C142.597 133.505 142.842 136.023 144.092 138.83L155.845 165.227L138.656 172.88L109.761 107.982L126.95 100.329L137.063 123.043C137.594 120.145 138.847 117.451 140.821 114.96C142.827 112.386 145.525 110.344 148.917 108.834Z" fill="#9747FF"/>
<path d="M104.313 113.857L120.241 181.701L99.6265 192.204L72.5016 159.48L82.8613 200.746L62.247 211.25L16.8942 158.399L35.0279 149.16L63.049 186.815L51.5365 140.748L69.9269 131.378L99.9976 167.557L86.1788 123.097L104.313 113.857Z" fill="#9747FF"/>
<path d="M284.051 106.438L287.11 122.175L279.1 123.732C265.593 126.358 257.539 120.98 254.937 107.598L251.549 90.1645L245.046 91.4284L242.061 76.0679L248.563 74.804L246.072 61.9879L264.636 58.3793L267.127 71.1954L276.739 69.327L279.725 84.6875L270.113 86.5559L273.557 104.272C273.838 105.717 274.353 106.693 275.104 107.199C275.917 107.693 277.109 107.787 278.679 107.482L284.051 106.438Z" fill="#9747FF"/>
<path d="M395.732 54.4535L370.052 137.078L349.716 139.216L359.589 110.088L332.242 61.1266L353.055 58.9391L367.512 88.1157L375.205 56.611L395.732 54.4535Z" fill="#9747FF"/>
<path d="M422.773 108.917C417.4 109.105 412.532 108.154 408.169 106.065C403.869 103.974 400.431 100.892 397.856 96.8195C395.28 92.7469 393.894 87.8964 393.697 82.2678C393.503 76.7032 394.548 71.7997 396.834 67.5574C399.183 63.3128 402.429 59.9975 406.573 57.6114C410.78 55.2232 415.57 53.9352 420.942 53.7476C426.315 53.56 431.151 54.5118 435.451 56.603C439.815 58.692 443.284 61.7728 445.86 65.8453C448.5 69.9157 449.917 74.7332 450.111 80.2978C450.305 85.8624 449.229 90.799 446.882 95.1075C444.596 99.3498 441.35 102.665 437.143 105.053C432.936 107.442 428.146 108.73 422.773 108.917ZM422.203 92.6072C424.826 92.5157 426.967 91.4803 428.627 89.5012C430.349 87.4558 431.146 84.6103 431.018 80.9645C430.891 77.3187 429.899 74.5677 428.041 72.7114C426.247 70.8529 424.07 69.9683 421.512 70.0576C418.954 70.147 416.844 71.1812 415.184 73.1604C413.525 75.1395 412.758 77.9519 412.886 81.5977C413.015 85.3075 413.945 88.0927 415.675 89.9535C417.405 91.8142 419.581 92.6988 422.203 92.6072Z" fill="#9747FF"/>
<path d="M515.325 60.0533L509.695 113.614L490.887 111.637L491.69 104C489.844 106.251 487.441 107.993 484.48 109.227C481.525 110.396 478.234 110.79 474.606 110.409C468.368 109.753 463.65 107.198 460.45 102.743C457.32 98.2314 456.127 92.4429 456.869 85.3778L460.141 54.2533L478.758 56.21L475.738 84.9477C475.417 88.0029 475.958 90.5052 477.362 92.4546C478.836 94.3471 480.91 95.4338 483.583 95.7148C486.32 96.0025 488.575 95.3707 490.346 93.8194C492.125 92.2044 493.175 89.8694 493.496 86.8142L496.516 58.0765L515.325 60.0533ZM527.945 47.4796L546.849 49.4665L533.039 75.2362L520.532 73.9216L527.945 47.4796Z" fill="#9747FF"/>
<path d="M567.688 51.8234L560.262 122.474L541.55 120.507L548.975 49.8566L567.688 51.8234Z" fill="#9747FF"/>
<path d="M602.827 57.3706L589.272 127.105L570.801 123.515L584.356 53.7803L602.827 57.3706Z" fill="#9747FF"/>
<path d="M650.916 111.098C652.543 105.773 654.914 101.412 658.028 98.0137C661.203 94.6342 664.801 92.388 668.822 91.275C672.843 90.1621 676.904 90.2324 681.004 91.4861C684.309 92.4965 687.032 94.0985 689.172 96.2921C691.392 98.4432 692.872 100.937 693.611 103.773L700.796 80.2706L718.882 85.8L698.112 153.736L680.026 148.207L682.215 141.046C680.078 143.002 677.509 144.291 674.508 144.913C671.507 145.535 668.262 145.313 664.774 144.246C660.673 142.992 657.267 140.78 654.556 137.609C651.906 134.456 650.209 130.591 649.467 126.014C648.805 121.395 649.288 116.423 650.916 111.098ZM688.005 122.437C689.015 119.132 688.892 116.25 687.636 113.792C686.442 111.352 684.528 109.73 681.897 108.925C679.204 108.102 676.68 108.367 674.325 109.722C671.988 111.015 670.306 113.345 669.277 116.712C668.266 120.016 668.349 122.92 669.525 125.421C670.72 127.861 672.664 129.492 675.357 130.316C677.989 131.12 680.482 130.845 682.837 129.491C685.253 128.155 686.976 125.804 688.005 122.437Z" fill="#9747FF"/>
<path d="M735.25 104.41C732.103 103.327 729.853 101.605 728.5 99.2434C727.229 96.8426 727.041 94.3412 727.937 91.7391C728.854 89.0765 730.552 87.1908 733.032 86.0818C735.573 84.9937 738.417 84.9914 741.563 86.0749C744.649 87.1375 746.828 88.8693 748.1 91.2701C749.432 93.6917 749.64 96.2338 748.723 98.8964C747.827 101.498 746.109 103.344 743.568 104.432C741.109 105.48 738.336 105.473 735.25 104.41ZM742.429 112.162L724.895 163.084L707.105 156.958L724.638 106.036L742.429 112.162Z" fill="#9747FF"/>
<path d="M757.289 173.714C752.614 172.374 748.651 170.405 745.4 167.809C742.229 165.168 739.955 162.186 738.578 158.862C737.28 155.493 737.002 152.051 737.744 148.536L755.278 153.563C755.047 155.295 755.446 156.807 756.473 158.101C757.501 159.394 758.968 160.314 760.875 160.861C762.352 161.284 763.609 161.312 764.646 160.944C765.684 160.575 766.344 159.899 766.626 158.915C766.997 157.623 766.563 156.466 765.324 155.445C764.085 154.425 761.942 153.077 758.893 151.404C755.413 149.608 752.575 147.895 750.379 146.267C748.183 144.638 746.462 142.513 745.216 139.892C744.032 137.289 743.951 134.203 744.974 130.635C745.856 127.559 747.481 125.029 749.847 123.044C752.232 120.998 755.235 119.696 758.858 119.137C762.542 118.595 766.66 118.977 771.212 120.282C777.98 122.223 782.825 125.41 785.748 129.843C788.671 134.277 789.664 139.289 788.727 144.879L772.393 140.195C772.562 138.446 772.186 136.973 771.264 135.777C770.421 134.536 769.046 133.643 767.139 133.096C765.662 132.672 764.445 132.623 763.486 132.947C762.589 133.289 762 133.952 761.717 134.937C761.364 136.167 761.799 137.324 763.019 138.406C764.258 139.427 766.349 140.726 769.293 142.302C772.816 144.178 775.667 145.961 777.846 147.651C780.086 149.359 781.811 151.584 783.022 154.328C784.311 157.028 784.418 160.255 783.342 164.008C782.478 167.022 780.809 169.473 778.337 171.361C775.927 173.266 772.888 174.459 769.222 174.939C765.635 175.375 761.657 174.967 757.289 173.714Z" fill="#9747FF"/>
<path d="M792.3 155.145C793.362 149.68 795.421 145.125 798.477 141.481C801.532 137.837 805.284 135.306 809.732 133.889C814.243 132.484 819.106 132.288 824.32 133.302C831.042 134.608 836.336 137.561 840.202 142.159C844.08 146.694 846.037 152.388 846.074 159.241L826.473 155.431C826.014 151.756 824.151 149.601 820.884 148.966C818.56 148.514 816.517 149.128 814.756 150.807C813.071 152.435 811.868 155.102 811.147 158.809C810.427 162.515 810.537 165.471 811.478 167.675C812.481 169.891 814.145 171.225 816.47 171.677C819.799 172.324 822.334 171.024 824.074 167.776L843.675 171.586C841.085 177.863 837.137 182.41 831.831 185.225C826.524 188.04 820.51 188.794 813.788 187.488C808.573 186.474 804.138 184.471 800.482 181.478C796.888 178.498 794.358 174.746 792.89 170.223C791.422 165.7 791.225 160.674 792.3 155.145Z" fill="#9747FF"/>
<path d="M872.159 194.473C866.813 193.912 862.124 192.293 858.094 189.617C854.127 186.947 851.152 183.417 849.168 179.026C847.184 174.634 846.486 169.638 847.075 164.037C847.657 158.499 849.375 153.789 852.228 149.906C855.146 146.03 858.822 143.198 863.257 141.412C867.755 139.633 872.678 139.024 878.025 139.586C883.371 140.148 888.028 141.763 891.994 144.433C896.025 147.109 899.032 150.642 901.016 155.034C903.063 159.432 903.796 164.4 903.214 169.937C902.632 175.475 900.879 180.213 897.955 184.153C895.102 188.036 891.426 190.868 886.927 192.647C882.428 194.427 877.506 195.035 872.159 194.473ZM873.865 178.243C876.475 178.517 878.739 177.79 880.658 176.061C882.648 174.275 883.833 171.568 884.215 167.94C884.596 164.312 883.996 161.45 882.414 159.353C880.897 157.263 878.865 156.084 876.319 155.816C873.773 155.549 871.54 156.28 869.621 158.008C867.702 159.737 866.551 162.416 866.17 166.044C865.782 169.735 866.315 172.623 867.769 174.706C869.223 176.79 871.255 177.969 873.865 178.243Z" fill="#9747FF"/>
<path d="M931.239 181.24L941.319 145.144H961.383L942.855 199H919.431L900.903 145.144H920.967L931.239 181.24Z" fill="#9747FF"/>
<path d="M1015.38 165.563C1015.56 167.024 1015.65 168.497 1015.64 169.981L980.287 174.321C980.836 177.22 981.899 179.314 983.476 180.604C985.109 181.822 987.037 182.294 989.26 182.021C992.373 181.639 994.424 179.969 995.415 177.01L1015.33 174.565C1014.96 178.35 1013.74 181.852 1011.69 185.071C1009.69 188.218 1006.98 190.84 1003.56 192.936C1000.14 195.032 996.242 196.349 991.859 196.887C986.587 197.535 981.749 197 977.347 195.284C973.009 193.56 969.411 190.778 966.554 186.937C963.76 183.089 962.02 178.37 961.334 172.78C960.647 167.19 961.198 162.222 962.985 157.875C964.765 153.466 967.551 149.899 971.344 147.177C975.2 144.447 979.796 142.754 985.132 142.099C990.404 141.451 995.206 141.958 999.536 143.619C1003.87 145.279 1007.43 148.002 1010.21 151.787C1012.99 155.508 1014.71 160.1 1015.38 165.563ZM995.755 163.234C995.474 160.947 994.493 159.262 992.813 158.179C991.124 157.032 989.137 156.599 986.85 156.88C984.563 157.16 982.767 158.026 981.462 159.476C980.149 160.862 979.419 162.789 979.271 165.258L995.755 163.234Z" fill="#9747FF"/>
<path d="M1036.81 142.758C1037.99 139.223 1039.78 136.179 1042.18 133.628C1044.58 131.076 1047.44 129.324 1050.76 128.371L1056.29 147.658L1051.22 149.113C1047.28 150.242 1044.58 151.849 1043.11 153.934C1041.64 156.019 1041.46 158.969 1042.55 162.783L1049.03 185.392L1030.95 190.578L1016.1 138.809L1034.19 133.622L1036.81 142.758Z" fill="#9747FF"/>
<path d="M185.068 120.71C183.44 115.385 182.967 110.444 183.648 105.886C184.39 101.309 186.086 97.4438 188.736 94.2913C191.448 91.12 194.854 88.9075 198.954 87.6538C202.504 86.5685 205.779 86.3368 208.78 86.9586C211.781 87.5804 214.35 88.8695 216.488 90.8261L214.299 83.6653L232.292 78.164L248.038 129.667L230.044 135.168L227.855 128.007C227.177 130.825 225.738 133.339 223.536 135.552C221.396 137.745 218.582 139.375 215.093 140.442C210.992 141.696 206.932 141.766 202.91 140.653C198.951 139.521 195.383 137.266 192.208 133.886C189.076 130.427 186.696 126.035 185.068 120.71ZM222.157 109.371C221.147 106.066 219.434 103.745 217.018 102.409C214.663 101.055 212.169 100.78 209.537 101.584C206.845 102.408 204.901 104.039 203.706 106.479C202.492 108.858 202.4 111.73 203.429 115.097C204.44 118.402 206.132 120.762 208.505 122.178C210.86 123.533 213.384 123.798 216.077 122.975C218.709 122.17 220.622 120.548 221.817 118.108C223.073 115.649 223.187 112.737 222.157 109.371Z" fill="#9747FF"/>
</svg>
