<svg width="1276" height="798" viewBox="0 0 1276 798" fill="none" xmlns="http://www.w3.org/2000/svg">
<path d="M551.704 365.314C546.848 365.583 542.458 365.025 538.535 363.64C534.673 362.188 531.546 360.118 529.153 357.43C526.821 354.675 525.428 351.515 524.974 347.951L543.186 346.941C543.537 348.653 544.411 349.95 545.806 350.834C547.201 351.719 548.889 352.106 550.87 351.996C552.403 351.911 553.6 351.524 554.459 350.835C555.318 350.147 555.72 349.291 555.663 348.269C555.588 346.927 554.799 345.977 553.293 345.42C551.788 344.862 549.321 344.294 545.892 343.715C542.015 343.16 538.772 342.475 536.163 341.658C533.554 340.841 531.23 339.4 529.193 337.333C527.219 335.263 526.13 332.375 525.924 328.669C525.747 325.474 526.45 322.55 528.034 319.899C529.614 317.183 532.023 314.966 535.261 313.248C538.563 311.527 542.578 310.535 547.307 310.273C554.336 309.883 559.959 311.302 564.176 314.53C568.393 317.757 570.977 322.165 571.928 327.753L554.962 328.694C554.547 326.986 553.708 325.719 552.444 324.891C551.241 323.996 549.648 323.604 547.667 323.714C546.134 323.799 544.968 324.152 544.169 324.773C543.434 325.391 543.095 326.211 543.151 327.233C543.222 328.511 544.012 329.461 545.521 330.082C547.026 330.64 549.427 331.18 552.725 331.702C556.669 332.317 559.948 333.064 562.561 333.945C565.237 334.822 567.598 336.358 569.642 338.552C571.747 340.679 572.908 343.691 573.124 347.589C573.298 350.72 572.527 353.584 570.812 356.178C569.161 358.77 566.683 360.894 563.377 362.552C560.132 364.142 556.241 365.063 551.704 365.314Z" fill="#9747FF"/>
<path d="M616.95 303.589C623.04 302.772 628.137 304.187 632.242 307.834C636.402 311.408 638.951 316.684 639.887 323.662L644.061 354.775L625.412 357.277L621.57 328.637C621.161 325.593 620.049 323.32 618.234 321.82C616.409 320.257 614.165 319.654 611.501 320.012C608.71 320.386 606.641 321.568 605.293 323.556C603.937 325.482 603.464 327.967 603.872 331.012L607.714 359.651L589.065 362.153L579.62 291.744L598.269 289.242L601.575 313.885C602.9 311.253 604.861 309.021 607.456 307.188C610.106 305.282 613.271 304.083 616.95 303.589Z" fill="#9747FF"/>
<path d="M684.387 347.212C679.136 348.362 674.176 348.301 669.508 347.03C664.903 345.745 660.968 343.331 657.702 339.787C654.437 336.243 652.202 331.72 650.998 326.219C649.807 320.78 649.955 315.768 651.441 311.184C652.99 306.587 655.588 302.742 659.235 299.651C662.945 296.546 667.426 294.418 672.678 293.269C677.929 292.119 682.858 292.187 687.463 293.472C692.131 294.743 696.097 297.151 699.363 300.694C702.69 304.224 704.95 308.709 706.14 314.148C707.331 319.587 707.159 324.637 705.624 329.297C704.137 333.881 701.539 337.725 697.83 340.83C694.12 343.936 689.639 346.063 684.387 347.212ZM680.898 331.27C683.461 330.709 685.381 329.306 686.659 327.061C687.985 324.739 688.258 321.797 687.478 318.233C686.698 314.67 685.227 312.142 683.066 310.649C680.968 309.143 678.668 308.664 676.167 309.211C673.667 309.759 671.777 311.155 670.5 313.4C669.222 315.645 668.974 318.549 669.754 322.113C670.548 325.739 671.962 328.312 673.999 329.832C676.035 331.352 678.334 331.831 680.898 331.27Z" fill="#9747FF"/>
<path d="M763.823 270.402L776.852 322.658L758.502 327.234L756.644 319.782C755.68 322.529 754.017 324.988 751.657 327.16C749.28 329.269 746.322 330.765 742.783 331.648C736.697 333.165 731.389 332.378 726.858 329.286C722.374 326.117 719.273 321.085 717.555 314.192L709.983 283.826L728.147 279.297L735.138 307.335C735.881 310.316 737.246 312.482 739.232 313.834C741.264 315.108 743.585 315.42 746.193 314.769C748.863 314.104 750.765 312.739 751.9 310.675C753.019 308.549 753.207 305.996 752.464 303.015L745.473 274.977L763.823 270.402Z" fill="#9747FF"/>
<path d="M791.93 247.912L809.117 316.841L790.86 321.393L773.673 252.464L791.93 247.912Z" fill="#9747FF"/>
<path d="M809.859 287.138C808.417 281.759 808.117 276.804 808.956 272.272C809.858 267.724 811.719 263.913 814.539 260.838C817.36 257.763 820.841 255.671 824.983 254.561C828.321 253.667 831.479 253.583 834.456 254.309C837.479 254.956 840.055 256.287 842.184 258.3L835.824 234.562L854.091 229.667L872.478 298.286L854.21 303.181L852.272 295.948C851.496 298.74 850.001 301.195 847.785 303.313C845.57 305.43 842.7 306.961 839.177 307.905C835.035 309.015 830.974 308.944 826.994 307.691C823.076 306.422 819.59 304.043 816.535 300.555C813.525 296.988 811.3 292.516 809.859 287.138ZM847.321 277.099C846.427 273.761 844.795 271.382 842.427 269.963C840.121 268.527 837.639 268.165 834.981 268.877C832.26 269.606 830.261 271.169 828.982 273.566C827.686 275.901 827.493 278.768 828.404 282.168C829.299 285.506 830.907 287.924 833.23 289.422C835.537 290.858 838.05 291.212 840.77 290.483C843.428 289.771 845.397 288.216 846.676 285.82C848.017 283.406 848.232 280.5 847.321 277.099Z" fill="#9747FF"/>
<path d="M918.864 275.061L925.76 238.224L945.748 236.475L931.984 291.741L908.649 293.783L885.498 241.747L905.485 239.998L918.864 275.061Z" fill="#9747FF"/>
<path d="M962.88 230.152C959.552 230.152 956.864 229.256 954.816 227.464C952.832 225.608 951.84 223.304 951.84 220.552C951.84 217.736 952.832 215.4 954.816 213.544C956.864 211.688 959.552 210.76 962.88 210.76C966.144 210.76 968.768 211.688 970.752 213.544C972.8 215.4 973.824 217.736 973.824 220.552C973.824 223.304 972.8 225.608 970.752 227.464C968.768 229.256 966.144 230.152 962.88 230.152ZM972.192 235.144L972.192 289L953.376 289L953.376 235.144L972.192 235.144Z" fill="#9747FF"/>
<path d="M1003.81 290.985C998.957 290.646 994.672 289.544 990.953 287.68C987.302 285.757 984.458 283.313 982.419 280.347C980.45 277.323 979.462 274.014 979.457 270.421L997.652 271.693C997.787 273.435 998.491 274.831 999.765 275.882C1001.04 276.934 1002.67 277.529 1004.64 277.667C1006.18 277.774 1007.41 277.54 1008.35 276.964C1009.29 276.388 1009.79 275.589 1009.87 274.568C1009.96 273.227 1009.29 272.186 1007.87 271.445C1006.45 270.704 1004.07 269.832 1000.74 268.829C996.962 267.795 993.831 266.71 991.344 265.574C988.857 264.438 986.732 262.717 984.968 260.413C983.269 258.112 982.548 255.111 982.807 251.408C983.03 248.216 984.093 245.403 985.995 242.97C987.902 240.473 990.569 238.574 993.996 237.274C997.487 235.978 1001.59 235.496 1006.32 235.826C1013.34 236.317 1018.74 238.427 1022.53 242.156C1026.31 245.885 1028.32 250.581 1028.57 256.244L1011.61 255.058C1011.42 253.312 1010.74 251.95 1009.59 250.971C1008.51 249.933 1006.98 249.345 1005 249.207C1003.47 249.099 1002.27 249.304 1001.4 249.821C1000.59 250.342 1000.15 251.113 1000.08 252.134C999.989 253.411 1000.65 254.452 1002.07 255.257C1003.5 255.998 1005.81 256.834 1009.02 257.764C1012.86 258.866 1016.02 260.017 1018.5 261.217C1021.04 262.422 1023.19 264.24 1024.95 266.673C1026.77 269.046 1027.55 272.179 1027.27 276.074C1027.06 279.202 1025.93 281.947 1023.91 284.307C1021.95 286.672 1019.22 288.47 1015.74 289.702C1012.32 290.875 1008.34 291.302 1003.81 290.985Z" fill="#9747FF"/>
<path d="M1052.17 237.764C1048.88 237.301 1046.34 236.039 1044.56 233.98C1042.85 231.866 1042.19 229.446 1042.58 226.721C1042.97 223.932 1044.28 221.757 1046.5 220.195C1048.78 218.642 1051.58 218.097 1054.87 218.561C1058.1 219.015 1060.57 220.299 1062.28 222.413C1064.05 224.536 1064.74 226.992 1064.35 229.78C1063.96 232.506 1062.63 234.645 1060.34 236.198C1058.13 237.696 1055.4 238.218 1052.17 237.764ZM1060.7 244.003L1053.2 297.335L1034.57 294.717L1042.07 241.385L1060.7 244.003Z" fill="#9747FF"/>
<path d="M1096.53 290.872L1091.84 306.204L1084.04 303.818C1070.88 299.795 1066.29 291.265 1070.28 278.229L1075.47 261.245L1069.14 259.308L1073.71 244.344L1080.05 246.281L1083.86 233.795L1101.95 239.324L1098.13 251.81L1107.5 254.673L1102.92 269.637L1093.56 266.774L1088.28 284.034C1087.85 285.441 1087.85 286.545 1088.27 287.344C1088.76 288.162 1089.77 288.804 1091.3 289.272L1096.53 290.872Z" fill="#9747FF"/>
<path d="M1109.75 312.341C1106.57 311.368 1104.26 309.725 1102.82 307.413C1101.47 305.058 1101.2 302.534 1102.02 299.841C1102.85 297.148 1104.48 295.204 1106.92 294.009C1109.42 292.833 1112.26 292.731 1115.45 293.704C1118.57 294.659 1120.8 296.313 1122.16 298.668C1123.58 301.042 1123.87 303.575 1123.05 306.268C1122.24 308.9 1120.59 310.804 1118.09 311.98C1115.65 313.175 1112.87 313.295 1109.75 312.341Z" fill="#9747FF"/>
<path d="M1148.75 324.341C1145.57 323.368 1143.26 321.725 1141.82 319.413C1140.47 317.058 1140.2 314.534 1141.02 311.841C1141.85 309.148 1143.48 307.204 1145.92 306.009C1148.42 304.833 1151.26 304.731 1154.45 305.704C1157.57 306.659 1159.8 308.313 1161.16 310.668C1162.58 313.042 1162.87 315.575 1162.05 318.268C1161.24 320.9 1159.59 322.804 1157.09 323.98C1154.65 325.175 1151.87 325.295 1148.75 324.341Z" fill="#9747FF"/>
<path d="M1184.75 338.341C1181.57 337.368 1179.26 335.725 1177.82 333.413C1176.47 331.058 1176.2 328.534 1177.02 325.841C1177.85 323.148 1179.48 321.204 1181.92 320.009C1184.42 318.833 1187.26 318.731 1190.45 319.704C1193.57 320.659 1195.8 322.313 1197.16 324.668C1198.58 327.042 1198.87 329.575 1198.05 332.268C1197.24 334.9 1195.59 336.804 1193.09 337.98C1190.65 339.175 1187.87 339.295 1184.75 338.341Z" fill="#9747FF"/>
<path d="M174.736 207.88L133.003 263.691L111.706 254.651L119.339 212.837L94.3863 247.299L73.0895 238.259L84.4231 169.545L103.157 177.497L92.3236 223.167L120.212 184.737L139.212 192.801L130.826 239.093L156.002 199.928L174.736 207.88Z" fill="#9747FF"/>
<path d="M208.143 241.066C213.712 243.663 217.241 247.604 218.731 252.888C220.306 258.142 219.606 263.96 216.631 270.34L203.364 298.791L186.311 290.839L198.523 264.65C199.821 261.866 200.11 259.353 199.391 257.11C198.698 254.81 197.133 253.092 194.697 251.956C192.145 250.766 189.765 250.645 187.558 251.593C185.377 252.483 183.638 254.32 182.34 257.104L170.128 283.293L153.075 275.341L183.098 210.956L200.151 218.908L189.643 241.443C192.179 239.942 195.034 239.12 198.208 238.976C201.467 238.801 204.779 239.498 208.143 241.066Z" fill="#9747FF"/>
<path d="M287.89 281.02L219.992 334.651L202.01 324.916L226.623 306.473L231.749 250.627L250.153 260.59L245.581 292.83L269.739 271.194L287.89 281.02Z" fill="#9747FF"/>
<path d="M375.031 306.241L320.768 373.634L301.071 368.144L320.963 344.688L313.535 289.1L333.695 294.719L336.41 327.168L355.149 300.699L375.031 306.241Z" fill="#9747FF"/>
<path d="M396.106 363.894C390.784 363.137 386.157 361.348 382.228 358.527C378.361 355.714 375.517 352.077 373.695 347.616C371.873 343.155 371.358 338.137 372.151 332.561C372.935 327.049 374.824 322.404 377.817 318.628C380.874 314.861 384.651 312.166 389.149 310.543C393.709 308.929 398.651 308.501 403.973 309.258C409.296 310.014 413.89 311.799 417.757 314.612C421.687 317.433 424.563 321.074 426.385 325.535C428.27 330.005 428.821 334.997 428.037 340.509C427.253 346.022 425.328 350.693 422.262 354.524C419.269 358.3 415.491 360.995 410.931 362.609C406.37 364.223 401.429 364.651 396.106 363.894ZM398.404 347.737C401.002 348.106 403.291 347.462 405.272 345.805C407.326 344.093 408.61 341.431 409.123 337.819C409.637 334.208 409.142 331.325 407.638 329.172C406.197 327.028 404.21 325.775 401.675 325.415C399.141 325.054 396.883 325.703 394.902 327.361C392.921 329.018 391.674 331.653 391.16 335.264C390.637 338.939 391.064 341.845 392.442 343.98C393.819 346.115 395.806 347.367 398.404 347.737Z" fill="#9747FF"/>
<path d="M494.069 314.615L493.649 368.469L474.737 368.321L474.797 360.642C473.178 363.061 470.955 365.028 468.127 366.542C465.3 367.992 462.062 368.702 458.414 368.674C452.142 368.625 447.198 366.538 443.582 362.414C440.031 358.226 438.283 352.58 438.339 345.476L438.583 314.181L457.302 314.328L457.077 343.223C457.053 346.295 457.834 348.733 459.42 350.537C461.07 352.278 463.239 353.159 465.927 353.18C468.679 353.202 470.862 352.355 472.475 350.639C474.089 348.86 474.908 346.434 474.932 343.362L475.158 314.467L494.069 314.615Z" fill="#9747FF"/>
</svg>
