<svg width="1916" height="918" viewBox="0 0 1916 918" fill="none" xmlns="http://www.w3.org/2000/svg">
<path d="M275.271 174.16C362.662 154.409 417.356 86.8567 599.938 80.5594C761.121 75.0254 843.512 151.928 1090.69 158.703C1301.26 164.523 1449.35 55.4658 1501.84 34.284C1554.34 13.1023 1662.93 -22.5821 1920 19.7813V692.73C1755.02 689.963 1654.93 710.19 1618.43 726.029C1571.44 746.352 1452.85 816.385 1365.86 821.442C1186.38 831.937 1113.78 775.548 984.297 747.783C838.313 716.392 740.723 733.376 670.23 751.886C558.942 781.178 509.047 831.27 434.055 868.862C377.961 897.009 307.868 918 187.581 918C126.087 918 0 893.288 0 893.288V195.151C61.1936 196.773 189.68 193.433 275.271 174.16Z" fill="#32BC42"/>
</svg>
